<?xml version="1.0" encoding="UTF-8"?><svg id="Layer_1" xmlns="http://www.w3.org/2000/svg" viewBox="0 0 1000 1000"><defs><style>.cls-1{fill:#27e4ea;fill-rule:evenodd;}</style></defs><path class="cls-1" d="m919.32,869H80.68c-27.79,0-50.32-22.53-50.32-50.32V181.32c0-27.79,22.53-50.32,50.32-50.32h838.64c27.79,0,50.32,22.53,50.32,50.32v637.36c0,27.79-22.53,50.32-50.32,50.32Zm0-33.55c9.26,0,16.77-7.51,16.77-16.77V181.32c0-9.26-7.51-16.77-16.77-16.77H80.68c-9.26,0-16.77,7.51-16.77,16.77v637.36c0,9.26,7.51,16.77,16.77,16.77h838.64ZM131,198.09c9.26,0,16.77,7.51,16.77,16.77s-7.51,16.77-16.77,16.77-16.77-7.51-16.77-16.77,7.51-16.77,16.77-16.77Zm67.09,0c9.26,0,16.77,7.51,16.77,16.77s-7.51,16.77-16.77,16.77-16.77-7.51-16.77-16.77,7.51-16.77,16.77-16.77Zm-93.14,116.34c-9.26,0-16.77-7.51-16.77-16.77s7.51-16.77,16.77-16.77h790.1c9.26,0,16.77,7.51,16.77,16.77s-7.51,16.77-16.77,16.77H104.95Zm160.23-116.34c9.26,0,16.77,7.51,16.77,16.77s-7.51,16.77-16.77,16.77-16.77-7.51-16.77-16.77,7.51-16.77,16.77-16.77Zm458.29,344.91c-.12-7.62,5.97-13.9,13.58-14.01l46.43-.74c7.62-.12,13.9,5.97,14.01,13.58.12,7.62-5.97,13.9-13.58,14.01l-46.43.74c-2.51.04-4.87-.6-6.92-1.74-4.16-2.32-7.02-6.74-7.09-11.84Zm-25.14-81.93l42.03-25.15c6.54-3.91,15.01-1.78,18.93,4.75,3.91,6.54,1.78,15.01-4.75,18.93l-42.03,25.15c-4.39,2.62-9.64,2.53-13.81.21-2.05-1.14-3.83-2.81-5.12-4.96-3.9-6.53-1.78-15.01,4.76-18.92Zm16.02,140.51l42.8,23.82c6.66,3.71,9.06,12.11,5.35,18.77s-12.11,9.06-18.77,5.35l-42.8-23.82c-6.66-3.71-9.06-12.11-5.35-18.77,3.71-6.66,12.11-9.06,18.77-5.35Zm-366.92,178.61c5.97,3.32,12.84,4.29,19.59,2.72l21.74-5.07c13.86-3.24,22.91-16.38,21.04-30.6l-6.06-45.95,7.92-.98c6.66-.83,12.65-4.27,16.85-9.72,4.57-5.9,6.61-13.6,5.62-21.14l-4.97-37.75c51.67,9.24,97.91,25.27,134.01,46.68.2,12.28,5.19,23.79,14.06,32.39,2.97,2.88,6.26,5.31,9.78,7.27,6.98,3.89,14.88,5.89,23.06,5.76,12.29-.19,23.81-5.19,32.41-14.06,8.6-8.87,13.23-20.53,13.04-32.84l-1.29-81.83c11.55-1.43,22.19-6.71,30.4-15.19,9.53-9.85,14.67-22.81,14.45-36.52-.41-26.38-20.77-47.85-46.46-50.26l-1.29-81.83c-.4-25.46-21.44-45.85-46.9-45.45-25.46.4-45.85,21.44-45.45,46.9h0c-44.16,28.11-104.38,48.36-171.52,57.7-.38-.48-.78-.94-1.22-1.37-2.62-2.55-6.16-3.95-9.82-3.88l-62.87.99c-45.91.73-82.67,38.66-81.95,84.57.35,22.16,9.36,42.91,25.38,58.43,5.37,5.2,11.29,9.6,17.65,13.13,12.59,7.01,26.82,10.62,41.55,10.38h.16s17.14,127.22,17.14,127.22c1.04,7.75,5.22,14.47,11.77,18.94.7.46,1.43.9,2.17,1.32Zm59.35-107.11s0,.02,0,.04l-6.65.82-6.25-47.37c2.3.27,4.59.55,6.86.84l6.03,45.66Zm264.7-129.26c.18,11.12-7.39,20.58-17.7,23.28l-.73-45.99c10.4,2.37,18.26,11.58,18.44,22.71Zm-66.63-150.37h0c10.25-.16,18.71,8.04,18.87,18.29l4.19,265.61c.08,4.93-1.79,9.61-5.26,13.19-3.47,3.58-8.1,5.6-13.02,5.68-4.93.08-9.61-1.79-13.2-5.27-3.58-3.47-5.59-8.09-5.68-13.02l-4.19-265.61c-.16-10.25,8.04-18.71,18.29-18.87Zm-45.38,51.17l3.18,201.89c-46.6-24.33-105.8-41.02-170.34-47.89l-1.59-100.78c64.3-8.89,122.94-27.43,168.74-53.22Zm-283.3,144.75c-10.72-10.39-16.75-24.25-16.98-39.04-.49-30.69,24.09-56.06,54.79-56.54l49.08-.77,1.76,111.33-49.08.77c-14.8.23-28.85-5.37-39.56-15.75Zm67.94,42.9l22.64-.35,15.74,119.06-21.7,5.05-16.68-123.76Z"/></svg>