<svg id="Layer_1" xmlns="http://www.w3.org/2000/svg" viewBox="0 0 105.82 106.27"><defs><style>.cls-1{fill:#0177fd;}</style></defs><path class="cls-1" d="m92.8,53.14c0-16.38,4.3-32.51,12.44-46.66.37-.65.57-1.44.57-2.19,0-2.36-1.92-4.28-4.28-4.28C45.55,0,0,45.75,0,101.99c0,2.36,1.92,4.28,4.28,4.28h97.25c2.36,0,4.28-1.97,4.28-4.34,0-.75-.2-1.48-.57-2.13-8.14-14.15-12.44-30.29-12.44-46.66Zm1.52-44.3c-6.62,13.77-10.08,28.94-10.08,44.3,0,7.05.74,14.05,2.17,20.9-14.7-15.73-33.08-27.6-53.86-34.6,15.52-17.26,37.34-28.7,61.78-30.59ZM26.75,46.55c27.98,8.64,51.54,26.61,67.23,51.16H8.66c.86-19.1,7.45-36.72,18.09-51.16Z"/></svg>