<?xml version="1.0" encoding="UTF-8"?><svg id="Layer_1" xmlns="http://www.w3.org/2000/svg" viewBox="0 0 1000 1000"><defs><style>.cls-1,.cls-2{fill:#27e4ea;}.cls-2{fill-rule:evenodd;}</style></defs><path class="cls-2" d="m262.18,178.95c-6.56,0-11.89,5.33-11.89,11.89v321.05c0,3.48,1.53,6.8,4.19,9.06l237.82,202.14c4.45,3.77,10.96,3.77,15.41,0l237.82-202.14c2.65-2.26,4.19-5.58,4.19-9.06V190.84c0-6.56-5.33-11.89-11.89-11.89h-47.56c-6.56,0-11.89-5.33-11.89-11.89s5.33-11.89,11.89-11.89h47.56c19.7,0,35.67,15.97,35.67,35.67v184.69l58.72,49.68c8,6.78,12.63,16.74,12.63,27.23v356.37c.05,4.09-.62,8.23-2.03,12.25-5.04,14.25-18.53,23.78-33.64,23.78h-451.85c-6.56,0-11.89-5.33-11.89-11.89s5.33-11.89,11.89-11.89h451.85c5.04,0,9.54-3.17,11.21-7.93,1.68-4.74.18-10.05-3.75-13.21l-185.91-150.17-107.61,91.48c-13.32,11.32-32.89,11.32-46.21,0l-107.61-91.48-185.91,150.17c-3.92,3.16-5.42,8.47-3.75,13.21,1.68,4.76,6.17,7.93,11.21,7.93h118.91c6.56,0,11.89,5.33,11.89,11.89s-5.33,11.89-11.89,11.89h-118.91c-15.11,0-28.6-9.54-33.64-23.78-1.42-4.02-2.08-8.16-2.03-12.25v-356.37c0-10.49,4.63-20.45,12.63-27.23l58.72-49.68v-184.69c0-19.7,15.97-35.67,35.67-35.67h380.51c6.56,0,11.89,5.33,11.89,11.89s-5.33,11.89-11.89,11.89h-380.51Zm386.98,455.12l171.89,138.84v-283.8l-171.89,144.96Zm-298.32,0l-171.89-144.96v283.8l171.89-138.84Zm422.65-227.39v91.51l43.35-36.68c2.66-2.26,4.21-5.58,4.21-9.07s-1.55-6.81-4.21-9.07l-43.35-36.68Zm-546.98,0l-43.35,36.68c-2.66,2.26-4.21,5.58-4.21,9.07s1.55,6.81,4.21,9.07l43.35,36.68v-91.51Z"/><path class="cls-1" d="m408.52,566.43c4.64,2.57,9.98,3.31,15.21,2.07l16.87-3.98c10.76-2.54,17.75-12.76,16.28-23.79l-4.79-35.66,6.15-.78c5.17-.65,9.81-3.34,13.06-7.58,3.54-4.59,5.1-10.57,4.32-16.42l-3.93-29.29c40.13,7.07,76.06,19.43,104.12,35.98.18,9.54,4.07,18.46,10.98,25.11,2.31,2.23,4.87,4.11,7.61,5.63,5.43,3,11.56,4.55,17.91,4.43,9.54-.17,18.48-4.07,25.13-10.98,6.66-6.91,10.23-15.97,10.06-25.52l-1.16-63.52c8.96-1.13,17.21-5.25,23.57-11.85,7.38-7.66,11.35-17.74,11.15-28.38-.37-20.48-16.22-37.11-36.17-38.93l-1.16-63.52c-.36-19.77-16.73-35.55-36.5-35.19-19.77.36-35.55,16.73-35.19,36.5h0c-34.23,21.91-80.94,37.74-133.05,45.12-.29-.37-.6-.73-.95-1.06-2.04-1.97-4.79-3.05-7.63-2.99l-48.81.89c-35.64.65-64.1,30.17-63.45,65.81.31,17.2,7.35,33.29,19.81,45.31,4.18,4.03,8.79,7.43,13.72,10.16,9.79,5.41,20.84,8.2,32.28,7.98h.12s13.55,98.73,13.55,98.73c.82,6.01,4.08,11.23,9.17,14.68.54.36,1.11.7,1.69,1.02Zm45.87-83.26s0,.02,0,.03l-5.16.65-4.94-36.76c1.79.2,3.56.42,5.33.64l4.77,35.44Zm205.25-100.86c.16,8.63-5.7,15.99-13.7,18.11l-.66-35.7c8.08,1.82,14.2,8.96,14.36,17.59Zm-52.01-116.61h0c7.95-.14,14.54,6.21,14.68,14.16l3.77,206.19c.07,3.82-1.37,7.46-4.06,10.25-2.69,2.78-6.28,4.37-10.1,4.43-3.82.07-7.46-1.37-10.26-4.06-2.78-2.69-4.36-6.27-4.43-10.1l-3.76-206.19c-.14-7.95,6.21-14.54,14.16-14.68Zm-35.13,39.81l2.86,156.73c-36.23-18.8-82.21-31.64-132.33-36.85l-1.43-78.23c49.9-7.02,95.38-21.53,130.9-41.64Zm-219.65,112.92c-8.34-8.05-13.05-18.79-13.26-30.28-.44-23.82,18.59-43.56,42.42-44l38.1-.69,1.58,86.42-38.1.69c-11.49.21-22.41-4.11-30.74-12.15Zm52.82,33.17l17.58-.32,12.45,92.4-16.84,3.97-13.19-96.05Z"/></svg>