<?xml version="1.0" encoding="UTF-8"?><svg id="Layer_1" xmlns="http://www.w3.org/2000/svg" xmlns:xlink="http://www.w3.org/1999/xlink" viewBox="0 0 1155.1 238.08"><defs><style>.cls-1{clip-path:url(#clippath);}.cls-2{fill:none;}.cls-2,.cls-3{stroke-width:0px;}.cls-3{fill:url(#linear-gradient);}</style><clipPath id="clippath"><rect class="cls-2" x="43.73" width="1111.37" height="237.73"/></clipPath><linearGradient id="linear-gradient" x1="109.62" y1="267.49" x2="1229.67" y2="267.49" gradientTransform="translate(-115.63 15.32) rotate(-1.37)" gradientUnits="userSpaceOnUse"><stop offset="0" stop-color="#013ff4"/><stop offset="1" stop-color="#0177fd"/></linearGradient></defs><g class="cls-1"><path class="cls-3" d="m1116.01,83.5c-46.21,54.26-99.33,100.9-148.06,152.91-36.22-3.17-69.79-8.38-101.72-14.81.54-10.42,1.71-20.75,4.52-30.67-14.22,5.26-27.95,12.76-39.63,23.02-89.37-20.86-168.11-49.11-260.59-63.92-7.24-17.44-11.65-36.02-12.97-54.97-2.73-39.2,9.81-72.33,9.81-72.33-.54-7.76-9.75-9.21-14.57-8.88-35.83,2.5-72.55,93.12-136.59,126.76-9.05.33-18.24.81-27.64,1.46-134.03,9.35-266.66,50.55-384.56,116.73-4.35,2.44-5.33,8.65-2.05,12.62,12.25,14.82,27.32,27.17,43.46,37.15,13.47-3.61,26.92-7.62,40.58-8.57,50.01-3.49,115.03,44.4,237.99,40.81,49.19,75.1,113.58,138.47,185.5,180.27-27.71-61.12-57.88-123.38-66.59-192.41,15.96-2.19,31.94-4.44,47.94-6.58,24.58-1.71,48.99,14.76,71.96,13.16.04,0,148.5-61.97,287.05-71.63,3.9-.27,7.79-.46,11.68-.66l3.5,2.05c.05-.75.09-1.5.13-2.25,29.54-1.36,58.98-.66,88.08,2.44l-1.17,3.89c30.94,93.73,94.55,142.15,120.43,156.42-9.5-33.06-17.72-67.11-20.1-101.15-7.74-111.04,57.16-153.77,63.63-240.87Z"/></g></svg>