<?xml version="1.0" encoding="UTF-8"?><svg id="Layer_1" xmlns="http://www.w3.org/2000/svg" viewBox="0 0 352.99 354.52"><defs><style>.cls-1{fill:#fff;stroke-width:0px;}</style></defs><path class="cls-1" d="m309.59,177.26c0-54.63,14.35-108.46,41.5-155.67,1.25-2.17,1.9-4.81,1.9-7.31,0-7.89-6.39-14.28-14.28-14.28C151.95,0,0,152.63,0,340.24c0,7.89,6.39,14.28,14.28,14.28h324.43c7.89,0,14.28-6.58,14.28-14.47,0-2.5-.66-4.95-1.9-7.12-27.15-47.21-41.5-101.04-41.5-155.67Zm5.08-147.77c-22.07,45.93-33.64,96.53-33.64,147.77,0,23.5,2.46,46.86,7.23,69.71-49.04-52.48-110.36-92.07-179.68-115.44,51.76-57.59,124.56-95.73,206.1-102.05Zm-225.45,125.79c93.35,28.82,171.94,88.76,224.28,170.68H28.88c2.87-63.71,24.87-122.49,60.34-170.68Z"/></svg>