<svg id="Layer_1" xmlns="http://www.w3.org/2000/svg" viewBox="0 0 1921.48 128.34"><defs><style>.cls-1{fill:#013ff4;stroke-width:0px;}</style></defs><g id="cxNLsZ"><path class="cls-1" d="m1921.45.01c0,42.4,0,84.81.03,127.21,0,.91-.24,1.12-1.32,1.12-639.6-.02-1279.2-.02-1918.79-.01-.84,0-1.62.07-1.29-.98.95.02,1.23-.44,1.21-1.17-.04-1.81-.07-3.63-.07-5.45,0-36.29,0-72.57.03-108.86,0-2.29-.08-4.57.19-6.88.14-1.21-.09-2.62-.22-3.94C1.14.26,1.57-.01,2.48.01c4.24.11,8.5.08,12.73.31,6.7.37,13.37,1.07,20.03,1.86,8.91,1.05,17.63,2.78,26.21,5.03,8.36,2.2,16.49,4.9,24.35,8.15,7.49,3.1,15.15,5.87,22.62,9.01,5.47,2.3,11.11,4.33,16.88,6.07,7.93,2.4,15.94,4.52,24.2,5.95,4.61.8,9.25,1.55,13.92,1.94,3.68.31,7.33.92,11.08.88,4.36-.04,8.72.5,13.09.62,4.42.12,8.85.09,13.27.01,3.85-.07,7.7-.28,11.55-.49,2.24-.12,4.47-.31,6.7-.53,3.65-.36,7.3-.76,10.94-1.15,1.59-.17,3.27-.23,4.76-.56,2.19-.48,4.4-.91,6.59-1.39,1.97-.43,4.04-.67,5.94-1.19,2.43-.67,4.92-1.21,7.32-1.96,1.86-.58,3.83-.89,5.68-1.44,1.62-.49,3.09-1.3,4.81-1.7,3.21-.73,6.14-2.08,9.16-3.24,4.88-1.87,9.81-3.62,14.56-5.73,5.58-2.49,11.36-4.6,17.11-6.78,6.2-2.35,12.53-4.38,18.96-6.18,8.37-2.34,16.95-3.94,25.65-5.08,2.97-.39,5.95-.68,8.92-1.01,7.1-.78,14.24-1.14,21.38-1.33,7.01-.18,14.02-.03,21.03.38,7.76.45,15.47,1.24,23.12,2.33,10.99,1.55,21.66,4.14,32.07,7.52,4.77,1.55,9.42,3.33,14.09,5.09,3.92,1.48,7.62,3.37,11.67,4.6.83.25,1.21,1.03,2.14,1.15,2.77.35,5,1.77,7.4,2.82,1.61.7,3.25,1.35,4.89,2.01,1.53.61,3.25.92,4.73,1.6,2.86,1.32,5.93,2.16,8.96,3.05,4.17,1.23,8.34,2.48,12.6,3.48,2.98.7,5.96,1.51,8.96,1.99,3.16.5,6.34,1.02,9.54,1.44,6.45.84,12.91,1.51,19.42,1.83,3.99.2,7.98.25,11.97.43,4.66.21,9.32,0,13.98.03,3.37.02,6.74-.25,10.1-.4,2.1-.1,4.28.04,6.27-.42,2.18-.5,4.39-.39,6.56-.78,3.87-.68,7.88-.73,11.74-1.61,3.27-.75,6.65-1.16,9.9-1.96,4.29-1.06,8.46-2.43,12.75-3.49,1.64-.4,2.94-1.36,4.68-1.57,2.91-.35,5.43-1.7,8.08-2.68,1.86-.69,3.86-1.19,5.5-2.34,1.11-.79,2.76-.48,4.04-1.02,2.42-1.02,4.71-2.24,7.15-3.24,8.28-3.4,16.59-6.73,25.15-9.58,8.84-2.95,17.89-5.32,27.2-6.96,1.49-.26,2.96-.64,4.46-.83,3.91-.49,7.85-.83,11.74-1.38,4.89-.7,9.87-1.13,14.77-1.2,12.43-.19,24.89-.7,37.3.6,4.81.51,9.64.92,14.42,1.59,7.43,1.04,14.71,2.59,21.92,4.44,8.73,2.24,17.11,5.22,25.41,8.4,2.6,1,5.07,2.21,7.68,3.22,3.8,1.47,7.69,2.8,11.37,4.51,1.44.67,2.84,1.65,4.35,1.93,2.61.49,4.52,2.21,7.2,2.51,1.01.11,1.87,1,2.89,1.23,2.32.53,4.4,1.6,6.75,2.05,1.48.29,2.83,1.07,4.26,1.33,2.48.44,4.79,1.28,7.23,1.79,3.61.76,7.15,1.72,10.83,2.27,5.41.81,10.79,1.75,16.27,2.24,4.41.39,8.81.75,13.24.91,3.37.12,6.75.24,10.12.36,7.92.29,15.84.12,23.74-.32,6.04-.33,12.1-.76,18.05-1.79,2.13-.37,4.31-.4,6.44-.94,3.38-.87,6.93-1.27,10.36-2.03,2.62-.58,5.23-1.26,7.71-2.16,2.33-.85,4.87-.85,7.2-1.84,3.91-1.65,8.09-2.83,12.11-4.3,7.22-2.64,14.18-5.74,21.27-8.59,5.13-2.06,10.29-4.05,15.53-5.89,9.9-3.47,20.03-6.32,30.55-8.1,5.98-1.01,12-1.81,18.07-2.4,7.06-.7,14.14-1.13,21.24-1.31,7.06-.18,14.12-.05,21.18.37,7.19.43,14.34,1.13,21.44,2.08,18.16,2.43,35.29,7.57,51.75,14.43,2.14.89,4.33,1.7,6.44,2.64,2.95,1.31,6.19,2.06,9.06,3.56,1.38.72,2.82,1.64,4.34,1.95,2.73.54,4.82,2.24,7.54,2.68.94.15,1.7.82,2.54,1,2.37.51,4.5,1.53,6.84,2.13,3.43.88,6.8,1.97,10.26,2.79,3.81.89,7.58,1.88,11.49,2.49,4.89.76,9.78,1.51,14.69,2.15,2.05.27,4.13.42,6.18.59,1.75.14,3.58.23,5.38.27,4.42.09,8.83.58,13.25.62,5.86.06,11.73.15,17.61-.15,3.94-.2,7.88-.38,11.82-.74,4.3-.39,8.63-.59,12.87-1.31,2.02-.34,4.32.37,6.06-1.09.08-.07.28-.03.42-.06,4.17-.73,8.36-1.41,12.44-2.46,5.26-1.35,10.51-2.72,15.65-4.4,8.02-2.63,15.76-5.79,23.53-8.9,4.33-1.74,8.59-3.61,12.99-5.2,4.45-1.61,8.84-3.33,13.36-4.82,7.96-2.63,16.1-4.76,24.38-6.47,3.84-.79,7.79-1.2,11.68-1.78,3.05-.46,6.13-.73,9.2-1.04,7.01-.71,14.03-1.19,21.08-1.32,10.02-.18,20.01.07,29.98,1.1,4.77.49,9.55.96,14.28,1.63,9.1,1.3,18.01,3.33,26.73,5.91,3.09.92,6.14,1.93,9.19,2.95,1.77.59,3.76.94,5.29,1.73,3.25,1.67,6.81,2.7,10.13,4.2,5.45,2.46,11.25,4.31,16.77,6.68,5.3,2.28,10.83,4.18,16.41,5.93,5.33,1.68,10.71,3.24,16.23,4.43,3.17.69,6.31,1.55,9.53,1.97,3.12.41,6.16,1.17,9.33,1.36,1.4.08,2.84.41,4.22.48,3.6.18,7.16.69,10.78.75,3.8.06,7.59.55,11.38.63,5.24.12,10.49.12,15.73,0,4.18-.1,8.35-.52,12.53-.67,4.23-.15,8.37-.87,12.58-1.11,2.57-.14,5.01-1.24,7.66-.78.34.06.51-.17.73-.32.38-.25.8-.43,1.29-.48,4.38-.43,8.6-1.41,12.79-2.52,3.68-.97,7.35-1.94,11-2.98,1.27-.36,2.35-1.05,3.64-1.29,1.35-.25,2.7-.51,3.92-1.07,3.32-1.5,6.89-2.52,10.24-3.99,2.71-1.19,5.64-1.97,8.34-3.31,1.87-.93,4.01-1.62,6.04-2.4,6.99-2.67,13.91-5.45,21.03-7.85,6.39-2.15,12.88-4.03,19.5-5.56,5.66-1.31,11.43-2.23,17.22-3.05,5.4-.76,10.85-1.28,16.3-1.69,4.69-.35,9.41-.51,14.11-.76Z"/></g></svg>