<?xml version="1.0" encoding="UTF-8"?><svg id="Layer_1" xmlns="http://www.w3.org/2000/svg" viewBox="0 0 658.03 95.96"><defs><style>.cls-1{fill:#fff;stroke-width:0px;}</style></defs><g id="MkTqZg"><path class="cls-1" d="m172.74,57.18c-32,37.24-71.41,48.88-117.65,29.59C18.17,71.36-2.88,30.41.32.19h34.43c.85,4.95,1.27,10.16,2.68,15.1,6.64,23.2,22.33,38.02,45.56,43.03,14.17,3.06,28.91,1.23,42.14-6.6,14.83-8.78,23.75-21.79,28.4-37.99.5-1.74.45-3.64.65-5.47.17-1.56.18-3.16.53-4.67.29-1.22.99-2.34,1.55-3.59h34.4c1.26,18.59,8.34,34.93,23.14,46.82,13.1,10.52,28.77,14.27,45.4,12,22.04-3,47.33-17.24,52.74-58.74h34.12c5.43,41.84,33.61,62.93,69.51,58.64,26.26-3.14,48.52-22.94,51.89-58.54h34.37c.72,1.74,1.94,3.44,1.97,5.6.23,14.79,7.26,26.83,17.17,36.81,9.99,10.06,22.58,15.69,37.27,16.5,14.83.82,28.21-2.48,40.16-11.29,12.38-9.13,20.12-21.19,22.79-36.31.63-3.58,2.37-6.99,1.36-11.21h35.14c3.43,29.42-17.51,70.9-54.66,86.45-46.27,19.37-85.62,7.63-118.31-30.18-19.94,24.95-45.33,38.93-77.5,39.01-32.25.08-57.67-13.84-77.41-38.42-2.81.24-3.99,2.3-5.09,3.89-7.77,11.18-19.12,18.09-30.53,24.6-7.41,4.22-15.88,6.48-24.33,8.35-7.32,1.62-14.71,1.77-22.13,1.56-20.3-.59-38.48-7.14-54.61-19.39-6.34-4.82-12.36-9.94-16.87-16.61-.69-1.02-1.48-2.27-3.48-2.37Z"/></g></svg>