<?xml version="1.0" encoding="UTF-8"?><svg xmlns="http://www.w3.org/2000/svg" xmlns:xlink="http://www.w3.org/1999/xlink" viewBox="0 0 645.33 895"><defs><style>.cls-1{fill:url(#New_Gradient_Swatch-8);}.cls-1,.cls-2,.cls-3,.cls-4,.cls-5,.cls-6,.cls-7,.cls-8,.cls-9,.cls-10,.cls-11,.cls-12,.cls-13,.cls-14,.cls-15,.cls-16,.cls-17,.cls-18,.cls-19,.cls-20{stroke-width:0px;}.cls-2{fill:url(#New_Gradient_Swatch-6);}.cls-3{fill:url(#New_Gradient_Swatch-7);}.cls-4{fill:url(#New_Gradient_Swatch-4);}.cls-5{fill:url(#New_Gradient_Swatch-5);}.cls-6{fill:url(#New_Gradient_Swatch-9);}.cls-7{fill:url(#New_Gradient_Swatch-2);}.cls-8{fill:url(#New_Gradient_Swatch-3);}.cls-9{fill:url(#New_Gradient_Swatch-18);mix-blend-mode:screen;opacity:.22;}.cls-21{mix-blend-mode:overlay;}.cls-10{fill:url(#New_Gradient_Swatch);}.cls-11{fill:url(#New_Gradient_Swatch-13);}.cls-12{fill:url(#New_Gradient_Swatch-10);}.cls-13{fill:url(#New_Gradient_Swatch-19);}.cls-14{fill:url(#New_Gradient_Swatch-12);}.cls-15{fill:url(#New_Gradient_Swatch-11);}.cls-16{fill:url(#New_Gradient_Swatch-14);}.cls-17{fill:url(#New_Gradient_Swatch-17);}.cls-18{fill:url(#New_Gradient_Swatch-16);}.cls-19{fill:url(#New_Gradient_Swatch-15);}.cls-20{fill:url(#New_Gradient_Swatch-20);}.cls-22{isolation:isolate;}</style><linearGradient id="New_Gradient_Swatch" x1="-292.61" y1="4311.09" x2="-485.93" y2="4358.82" gradientTransform="translate(3649.52 -2265.43) rotate(47.25)" gradientUnits="userSpaceOnUse"><stop offset="0" stop-color="#72A9F8"/><stop offset="1" stop-color="#72A9F8"/></linearGradient><linearGradient id="New_Gradient_Swatch-2" x1="86.44" y1="5315.68" x2="-106.88" y2="5363.41" gradientTransform="translate(4792.31 -2310.57) rotate(59.46)" xlink:href="#New_Gradient_Swatch"/><linearGradient id="New_Gradient_Swatch-3" x1="609.35" y1="6725.3" x2="416.03" y2="6773.03" gradientTransform="translate(6178.56 -1622.5) rotate(75.79) scale(.93 .94)" xlink:href="#New_Gradient_Swatch"/><linearGradient id="New_Gradient_Swatch-4" x1="-848.75" y1="2993.3" x2="-1042.07" y2="3041.03" gradientTransform="translate(2464.57 -1544.77) rotate(31.93) scale(.93 .94)" xlink:href="#New_Gradient_Swatch"/><linearGradient id="New_Gradient_Swatch-5" x1="-451.21" y1="3155.44" x2="-644.53" y2="3203.17" gradientTransform="translate(2369.43 -1919.96) rotate(33.18)" xlink:href="#New_Gradient_Swatch"/><linearGradient id="New_Gradient_Swatch-6" x1="-327.53" y1="4203.47" x2="-520.85" y2="4251.21" gradientTransform="translate(3466.93 -2241.69) rotate(45.39)" xlink:href="#New_Gradient_Swatch"/><linearGradient id="New_Gradient_Swatch-7" x1="-173.39" y1="5682.7" x2="-366.71" y2="5730.43" gradientTransform="translate(4978.9 -1911.43) rotate(61.71) scale(.93 .94)" xlink:href="#New_Gradient_Swatch"/><linearGradient id="New_Gradient_Swatch-8" x1="-664.67" y1="1778.66" x2="-857.99" y2="1826.4" gradientTransform="translate(1395.33 -932.76) rotate(17.85) scale(.93 .94)" xlink:href="#New_Gradient_Swatch"/><linearGradient id="New_Gradient_Swatch-9" x1="-525.22" y1="3360.65" x2="-718.54" y2="3408.39" gradientTransform="translate(2754.69 -2081.76) rotate(38.17)" xlink:href="#New_Gradient_Swatch"/><linearGradient id="New_Gradient_Swatch-10" x1="-524.26" y1="2823.05" x2="-717.58" y2="2870.78" gradientTransform="translate(2135.74 -1840.27) rotate(31.03)" xlink:href="#New_Gradient_Swatch"/><linearGradient id="New_Gradient_Swatch-11" x1="242.95" y1="22.46" x2="49.63" y2="70.19" gradientTransform="matrix(1,0,0,1,0,0)" xlink:href="#New_Gradient_Swatch"/><linearGradient id="New_Gradient_Swatch-12" x1="260.94" y1="95.32" x2="67.62" y2="143.05" gradientTransform="matrix(1,0,0,1,0,0)" xlink:href="#New_Gradient_Swatch"/><linearGradient id="New_Gradient_Swatch-13" x1="194.32" y1="510.6" x2="287.05" y2="510.6" gradientTransform="matrix(1,0,0,1,0,0)" xlink:href="#New_Gradient_Swatch"/><linearGradient id="New_Gradient_Swatch-14" x1="3.74" y1="389.94" x2="151.51" y2="389.94" gradientTransform="matrix(1,0,0,1,0,0)" xlink:href="#New_Gradient_Swatch"/><linearGradient id="New_Gradient_Swatch-15" x1="2.31" y1="358.86" x2="93.43" y2="358.86" gradientTransform="matrix(1,0,0,1,0,0)" xlink:href="#New_Gradient_Swatch"/><linearGradient id="New_Gradient_Swatch-16" x1="8539.21" y1="734.51" x2="8716.51" y2="734.51" gradientTransform="translate(9184.54) rotate(-180) scale(1 -1)" xlink:href="#New_Gradient_Swatch"/><linearGradient id="New_Gradient_Swatch-17" x1="288.75" y1="775.22" x2="288.75" y2="530.66" gradientTransform="matrix(1,0,0,1,0,0)" xlink:href="#New_Gradient_Swatch"/><linearGradient id="New_Gradient_Swatch-18" x1="288.75" y1="735.31" x2="288.75" y2="518.33" gradientTransform="matrix(1,0,0,1,0,0)" xlink:href="#New_Gradient_Swatch"/><linearGradient id="New_Gradient_Swatch-19" x1="253.28" y1="799.22" x2="253.29" y2="648.33" gradientTransform="matrix(1,0,0,1,0,0)" xlink:href="#New_Gradient_Swatch"/><linearGradient id="New_Gradient_Swatch-20" x1="381.8" y1="620.26" x2="452.55" y2="620.26" gradientTransform="matrix(1,0,0,1,0,0)" xlink:href="#New_Gradient_Swatch"/></defs><g class="cls-22"><g id="Layer_1"><g class="cls-21"><path class="cls-10" d="m169.51,359.35c10.04-3.35,21.15-10.5,21.06-22.31-.01-1.76-2.68-1.88-2.74-.11-.36,11.15-10.51,14.35-19.66,16.37-6.84,1.51-13.53,3.02-19.83,6.21-9.85,4.98-22.52,15.45-22.6,27.5-.01,2.33,2.69,2.83,4,1.23,5.44-6.66,8.77-13.69,16.06-18.81,7.32-5.14,15.34-7.28,23.7-10.07Z"/><path class="cls-7" d="m178.2,371.05c10.52-1.15,22.9-5.79,25.31-17.35.36-1.72-2.22-2.41-2.66-.68-2.71,10.82-13.31,11.8-22.68,11.84-7.01.03-13.86.09-20.69,1.87-10.68,2.78-25.28,10.34-27.9,22.1-.51,2.27,2.03,3.33,3.65,2.04,6.72-5.36,11.46-11.52,19.67-14.99,8.24-3.48,16.54-3.87,25.3-4.83Z"/><path class="cls-8" d="m178.66,384.88c9.74,1.69,22.07.75,27.3-8.91.78-1.44-1.36-2.71-2.2-1.29-5.3,8.92-15.07,7.06-23.48,4.68-6.29-1.78-12.46-3.49-19.06-3.67-10.32-.28-25.42,2.68-30.89,12.46-1.06,1.89.93,3.49,2.73,2.76,7.45-3.03,13.34-7.29,21.62-8.26,8.32-.97,15.86.82,23.97,2.23Z"/><path class="cls-4" d="m156.6,357.57c8.19-5.53,16.44-14.75,13.51-25.34-.43-1.58-2.86-1.02-2.48.59,2.36,10.11-5.97,15.54-13.69,19.64-5.77,3.07-11.4,6.11-16.28,10.56-7.64,6.95-16.47,19.54-13.64,30.39.55,2.1,3.09,1.87,3.88.1,3.27-7.35,4.57-14.5,9.87-20.93,5.33-6.46,12-10.39,18.83-15Z"/><path class="cls-5" d="m215.35,449.36c7.15-4.56,14.4-12.29,12.02-21.45-.35-1.36-2.45-.94-2.15.45,1.89,8.74-5.38,13.21-12.09,16.55-5.03,2.51-9.93,4.99-14.2,8.69-6.69,5.79-14.5,16.4-12.21,25.78.44,1.81,2.64,1.68,3.34.17,2.93-6.23,4.15-12.35,8.82-17.75,4.69-5.42,10.51-8.65,16.46-12.45Z"/><path class="cls-2" d="m224.38,456.76c7.95-2.94,16.67-8.96,16.29-18.42-.06-1.41-2.2-1.44-2.2-.01,0,8.94-8.05,11.77-15.32,13.62-5.44,1.39-10.76,2.77-15.72,5.49-7.76,4.24-17.64,12.96-17.38,22.62.05,1.87,2.23,2.2,3.23.88,4.18-5.47,6.67-11.19,12.37-15.48,5.73-4.31,12.1-6.23,18.72-8.68Z"/><path class="cls-3" d="m227.44,467.43c7.9-.59,17.3-3.72,19.49-12.25.32-1.27-1.58-1.85-1.96-.58-2.38,7.97-10.34,8.43-17.34,8.22-5.24-.16-10.36-.28-15.53.86-8.08,1.79-19.24,7.03-21.58,15.71-.45,1.68,1.41,2.53,2.66,1.61,5.2-3.81,8.95-8.27,15.2-10.63,6.28-2.37,12.49-2.45,19.07-2.94Z"/><path class="cls-1" d="m204.96,450.49c5.29-5.9,9.9-14.67,5.57-22.33-.64-1.14-2.42-.23-1.81.94,3.8,7.4-1.61,13.24-6.81,17.94-3.89,3.51-7.67,6.98-10.6,11.38-4.58,6.89-9,18.4-4.68,26.28.83,1.52,2.76.85,3.03-.68,1.11-6.35.72-12.16,3.59-18.2,2.88-6.06,7.31-10.42,11.71-15.33Z"/><path class="cls-6" d="m174.84,217.43c-6.2.22-11.96-2.05-16.97-5.54-.83-.58-1.63-1.16-2.42-1.73,3.76-1.95,7.31-4.35,10.42-7.06,1.2.02,2.44.13,3.76.35,4.18.7,8.27,2.06,12.52,2.18,6.85.2,12.4-2.36,15.84-8.33.61-1.06-1.19-2.12-1.86-1.1-5.41,8.21-16.87,2.91-25,1.52.9-1.09,1.76-2.19,2.5-3.32,2.79-4.24,4.83-8.01,9.85-9.93,3.9-1.49,8.16-1.45,12.15-2.58,5.45-1.54,9.88-4.11,11.28-9.85.25-1.04-1.49-1.53-1.82-.5-1.16,3.57-6.72,5.62-10.06,5.36-1.87-.14-3.69-.43-5.57-.5-2.65-.1-5.33-.17-7.95.28-2.21.38-4.17,1.1-5.95,2.07.96-2.11,2.08-3.82,4.22-5.55,4.1-3.32,6.46-5.72,7.25-11.03.11-.75-1.06-1.12-1.31-.36-1.8,5.44-9.35,6.51-12.66,10.83-2.27,2.96-3.4,7.68-3.95,11.52-.6.7-1.19,1.42-1.76,2.19-4.73,6.43-9.13,11.05-16.7,14.25-.4.17-.8.31-1.2.46.81-2.56,1.56-5.16,2.81-7.61,1.63-3.22,2.93-6.56,2.55-10.22-.09-.91-1.63-.98-1.64-.01-.05,4.93-4.36,8.3-6.7,12.31-1.39,2.37-2.55,4.84-2.93,7.5-4.15,1.25-8.3,2.48-11.89,4.92-2.82,1.92-1.52,6.59,1.78,7,5.16.64,10.67-.24,15.99-2.15,7.68,6.08,15.08,10.46,25.95,9.01,2.85-.38,2.28-4.47-.52-4.37Z"/><path class="cls-12" d="m168.72,310.57c-6.13.99-12.12-.55-17.52-3.39-.9-.47-1.76-.95-2.62-1.41,3.49-2.4,6.71-5.23,9.46-8.3,1.2-.13,2.44-.18,3.77-.12,4.23.18,8.46,1.02,12.69.61,6.82-.66,12.01-3.88,14.68-10.24.47-1.12-1.44-1.96-1.98-.86-4.35,8.82-16.38,4.99-24.61,4.61.76-1.19,1.47-2.39,2.07-3.6,2.24-4.55,3.8-8.55,8.54-11.08,3.68-1.96,7.92-2.45,11.74-4.07,5.22-2.21,9.29-5.31,9.97-11.18.12-1.06-1.67-1.33-1.87-.27-.71,3.68-5.97,6.41-9.31,6.57-1.87.09-3.72.03-5.59.19-2.64.23-5.31.49-7.86,1.27-2.14.65-4,1.61-5.65,2.8.69-2.21,1.59-4.04,3.5-6.03,3.65-3.81,5.7-6.48,5.82-11.85.02-.76-1.19-.97-1.35-.19-1.11,5.63-8.47,7.62-11.22,12.32-1.89,3.22-2.42,8.04-2.48,11.92-.51.77-1,1.56-1.47,2.39-3.89,6.97-7.69,12.1-14.8,16.21-.37.21-.76.41-1.14.61.49-2.65.91-5.31,1.84-7.9,1.22-3.4,2.09-6.87,1.26-10.46-.21-.89-1.74-.76-1.63.19.56,4.89-3.29,8.77-5.12,13.05-1.08,2.53-1.93,5.12-1.97,7.8-3.96,1.75-7.93,3.49-11.18,6.36-2.56,2.25-.69,6.73,2.64,6.72,5.2-.01,10.55-1.57,15.6-4.12,8.38,5.08,16.26,8.5,26.87,5.71,2.78-.73,1.7-4.72-1.06-4.28Z"/><path class="cls-15" d="m193.67,18.69c-17.09-.19-32.97-1.74-50.04.97-17.27,2.75-35.4,1.73-52.33,5.27l-16.7,72c17.89-.36,33.16-7.07,49.75-12.14,9.88-3.02,23.24-4.19,32.14-9.28,4.33-2.48,6.71-7.11,11.75-10,10.92-6.28,18.47-5.15,24-16.79,4.34-9.12,3.68-15.53,14.86-19.78,15.55-5.91,49.18,4.75,60.49-10.62-23.65-.48-49.5.65-73.93.38Z"/><path class="cls-14" d="m149.57,115.16c-8.21-.09-15.84-.84-24.05.47-8.3,1.32-17.01.83-25.15,2.53l-8.02,34.6c8.6-.17,15.94-3.4,23.9-5.83,4.75-1.45,11.17-2.01,15.45-4.46,2.08-1.19,3.22-3.41,5.65-4.81,5.25-3.02,8.87-2.47,11.53-8.07,2.08-4.38,1.77-7.46,7.14-9.5,7.47-2.84,23.63,2.28,29.06-5.1-11.36-.23-23.78.31-35.52.18Z"/><path class="cls-11" d="m251.53,491.95c-8.21-.09-15.84-.84-24.05.47-8.3,1.32-17.01.83-25.15,2.53l-8.02,34.6c8.6-.17,15.94-3.4,23.9-5.83,4.75-1.45,11.17-2.01,15.45-4.46,2.08-1.19,3.22-3.41,5.65-4.81,5.25-3.02,8.87-2.47,11.53-8.07,2.08-4.38,1.77-7.46,7.14-9.5,7.47-2.84,23.63,2.28,29.06-5.1-11.36-.23-23.78.31-35.52.18Z"/><path class="cls-16" d="m277.45,637.78c0,63.6-38.99,142.11-142.61,142.11-48.15,0-93.49-10.54-134.84-29.66V0h127.73c-3.78,23.52-8.07,49.42-8.07,72.85,0,67.98,28.84,68.95,28.84,107.02,0,21.84-17.43,81.53-17.43,133.12,0,32.7,6.86,63.04,28.16,86.53,53.47,63.35,118.23,153.39,118.23,238.25Z"/><path class="cls-19" d="m168.64,611.79c-7.61,15.3-36.46,32.24-49.42,43.8-18.9,16.88-40.44,36.66-64.87,43.51-15.54,4.37-35.17,13.75-54.34,18.62V0h59.57c-6.09,24.51-7.52,45.36-.5,70.49,11.19,40.02-8.91,79.21.2,117.82,2.79,11.78,10.49,21.66,13.57,33.26,3.97,14.95.66,30.52-.79,45.48-2.29,23.65.63,36.52,8.63,58.1,8.02,21.57,1.68,42.92,6.87,64.78,4.46,18.8,20.26,33.83,31.4,49.28,22.63,31.36,36.87,59.8,47.35,96.45,4.44,15.5-2.74,27.23-1.72,42.15.91,13.71,11.1,19.8,4.06,33.97Z"/><path class="cls-18" d="m494.83,690.45c2.79,4.25,5.63,7.87,6.59,13.26-2.33-2.17-5.17-3.41-8.6-4.87-7.33-3.13-10.85-9.62-15.55-15.51-.56-.7-1.95-.47-1.81.6.68,5.3,5,9.48,8.77,12.99.19.18.39.34.59.51-.54-.06-1.07-.1-1.55-.14-4.65-.37-9.98-.67-14.61-.12-.79.09-.8,1.1-.09,1.33,3.8,1.2,8.31.72,12.27.99,2.83.19,6.04,1.12,9.02,1.33,4.41,2.43,9.04,4.26,12.16,8.68.41,6.77.23,13.75,1.31,20.45-1.32-1.05-2.78-1.96-4.41-2.83-.35-.19-.68-.38-1.02-.57-.36-1.66-1.93-3.29-2.68-4.73-1.33-2.54-1.97-5.38-3.34-7.89-.21-.38-.89-.26-.93.18-.28,2.82.76,5.5,1.97,8.01.27.56.59,1.27.97,2.01-3.03-1.99-5.76-4.16-8.68-6.79-.73-.66-1.6.28-1.22,1.05,4.13,8.26,14.22,9.5,20.2,15.64.43,1.7.97,3.38,1.65,5.02,2.25,5.39,6.52,8.39,10.01,12.84,3.75,4.77,4.82,10.59,9.34,14.91,8.61,8.25,24.59,10.05,28.7,22.47-.48.89-.98,1.78-1.43,2.68-3.1,6.13-6.79,12.81-8,19.61-.18,1,1.28,1.95,1.95.97.2-.29.39-.59.58-.89,0,.45.03.91.1,1.36.05.36.52.61.81.34,3.32-2.92,4.68-7.5,6.43-11.46,2.14-4.85,4.39-9.63,7.13-14.18,5.31-8.83,12.5-15.1,19.77-22.2,6.89-6.73,11.6-14.56,15.46-23.31,1.77-4.01,4.35-6.7,7.22-9.49.99-.93,1.97-1.86,2.91-2.84.02-.02.03-.03.05-.05.01-.01.03-.03.04-.04l.03-.04c1.05-1.07,1.94-2.15,2.66-3.31.22-.33.44-.67.64-1.01.81-1.39,1.39-2.9,1.89-4.46,1.27-.46,2.55-.93,3.83-1.38,1.77,1.23,4.21,1.44,6.28,1.92,2.78.64,5.57,1.29,8.35,1.95,1.49.35,1.95-1.99.46-2.32-2.79-.63-5.57-1.26-8.36-1.89-1.1-.25-2.25-.6-3.41-.82,6.9-2.37,13.95-4.37,21.23-4.82,1.61-.1,1.45-2.52-.15-2.48-4.3.1-8.41.74-12.44,1.71.36-.3.71-.61,1.08-.89,2.05-1.57,4.12-3.1,6.28-4.51,1.38-.9.02-2.91-1.38-2.12-2.38,1.34-4.74,2.76-6.92,4.41-1.69,1.28-3.58,2.38-4.26,4.43-.01.04,0,.08,0,.12-3.24,1.02-6.45,2.22-9.65,3.51.98-3.5,1.97-6.99,4.43-9.68,7.47-8.16,20.77-6.43,27.47-16.15,1.5-2.18-1.46-4.99-3.16-2.8-4.85,6.22-12.92,7.77-19.85,11.04.39-1,.82-1.97,1.28-2.93,1.28-.92,2.41-2.08,3.73-2.95,1.82-1.19,3.75-2.1,5.81-2.81.8-.28.4-1.45-.41-1.24-2.06.53-4.55,1.36-6.75,2.56,1.77-2.91,3.84-5.66,6.24-8.28.6-.66-.34-1.81-1.05-1.22-5.93,4.97-10.06,11.46-12.38,18.8-1.88,1.2-3.6,2.63-5.04,4.49-.35.46-.66.93-.95,1.41-3.68.66-7.15,2.05-10.66,3.35-.78.29-1.58.59-2.37.94.38-.47.77-.95,1.17-1.4.44-.5.91-.98,1.39-1.45.28-.02.54-.14.74-.39.27-.34.52-.68.78-1.02,2.63-2.35,5.48-4.47,7.74-7.21,2.3-2.79,3.35-5.72,4.38-9.13,1.77-5.87,5.53-8.57,8.9-13.33.7-.99-.62-2.25-1.45-1.28-2.76,3.24-6.84,5.38-8.59,9.4-.68,1.56-.72,3.13-1.06,4.77-.85,4.09-2.09,6.54-5.19,9.41-.29.27-.59.52-.89.78.7-1.73,1.19-3.56,1.42-5.59.68-5.87,2.66-10.96,4.12-16.59.35-1.36-1.74-2.11-2.49-1.03-2.72,3.9-3.9,9.18-4.56,13.83-.42,2.96-.45,5.96-1.47,8.81-.57,1.59-1.35,3.12-2.16,4.62-1.65,1.27-3.27,2.58-4.72,4.1-1.87,1.96-3.45,4.15-4.86,6.44,1.04-9.37.58-19.6,8.48-25.94.96-.77-.06-2.39-1.06-1.62-4.21,3.25-6.3,8.72-8.1,13.8-.63-4.58-.26-9.28,1.2-13.7,1.29-3.89,5.27-8.46,4.14-12.72,1.31-.8,2.67-1.53,4.09-2.16,1.12-.49.42-2.22-.71-1.76-5.4,2.22-10.3,5.26-14.78,8.87,3.92-5.46,7.84-10.92,12.08-16.15.89-1.1-.74-2.56-1.66-1.47-4.43,5.27-8.41,10.89-12.39,16.5.53-2.47.92-4.97,1.35-7.45.45-2.55,1.42-5.05,1.5-7.63.02-.68-.71-.96-1.18-.49-2.64,2.69-3.23,7.41-3.93,10.99-.93,4.75-1.97,9.57-4.39,13.76-1.12,1.49-2.26,2.97-3.43,4.42.42-2.33.99-4.42,1.84-6.75,1.58-4.32,1.21-9.26,3.2-13.41.43-.9-.76-.93-.81-.89-3.27,2.96-3.27,7.04-4.14,11.3-.28,1.39-.68,2.76-1.06,4.14-.54-3.24-1.6-6.49-2.41-9.47-.34-1.26-2.06-.55-2.03.53.13,6.42,5.01,13.3.86,19.44-.14.21-.19.43-.18.63-.16.17-.31.35-.47.52-.03.03-.07.07-.1.1-4.64,2.92-8.69,7.19-12.11,11.79-.62.65-1.23,1.3-1.81,1.97.7-2.83,1.15-5.78,1.49-8.71,3.32-5.64,10.88-9.62,10.38-16.73-.05-.66-.92-.65-1.17-.15-2.25,4.42-5.92,7.98-8.7,12.03.13-1.36.25-2.7.38-4,.17-1.69-2.25-2.25-2.63-.52-1.71,7.74-3.66,15.85-4.38,23.74-.02.26.04.49.14.7-.69,1.27-1.29,2.6-1.76,4-1.37-2.42-3.16-4.56-5.04-6.64,2.62-5.25,3.83-10.81,4.48-16.69.11-1.01.22-2.04.34-3.08,1.26-1.34,2.22-3.05,3.39-4.46,1.97-2.35,4.18-4.33,6.86-5.83.63-.35.02-1.24-.6-.93-2.67,1.36-4.94,3.19-6.98,5.38-.72.77-1.51,1.6-2.25,2.47.95-6.79,2.71-13.58,8.12-18.13.99-.84-.09-2.56-1.12-1.72-7.24,5.85-9.06,14.15-10.36,22.77-.97-4.28-2.53-8.46-2.71-12.82-.05-1.21-2.02-1.39-2.15-.15-.49,4.66,1.48,8.25,2.59,12.65,1.52,6.07.58,12.64-1.5,18.46-.49-.54-.99-1.08-1.47-1.63-6.36-7.16-11.46-12.43-10.84-22.5.02-.34.02-.65.04-.97.01,0,.03,0,.04-.02,1.36-1.06,2.16-2.04,3.19-3.48,1.75-2.45,3.41-3.88,5.91-5.45,3.34-2.09,6.06-4.66,8.12-8.03.23-.38-.34-.71-.62-.41-3.47,3.7-7.19,5.4-11.24,8.13-2.09,1.41-3.12,3.51-4.41,5.49.55-2.23,1.39-4.31,2.63-6.3.87-1.4.88-.65,1.77-2.47.54-1.11.69-2.38,1.05-3.54,1.25-4.02,2.9-6.63,6.52-8.87.52-.32,0-1.09-.52-.8-4.64,2.64-6.27,6.04-8.38,10.67-1.32,2.9-3.19,5.17-4.64,7.79-.35-1.42-.85-2.85-1.57-4.38-3.57-7.57-6.04-12.94-2.26-21.18.51-1.12-1.1-1.89-1.7-.84-1.41,2.47-2.24,5.14-2.52,7.88-1.37-.9-2.6-1.99-3.61-3.29-.86-1.11-1.4-2.43-2.38-3.42-.41-.42-1.1,0-1.08.53.12,3.47,3.93,6.68,6.6,8.41.12.08.24.11.35.13.01,1.28.13,2.58.38,3.87.94,5,4.15,9.18,5.16,14.05-1.92-2.29-3.94-3.54-7.26-4.84-3.46-1.35-6.23-3.3-8.64-5.69-.26-2.23-.35-4.47-.18-6.7.14-1.87.74-3.77.33-5.63-.12-.55-.95-.69-1.27-.26-1.3,1.67-1.35,4.03-1.5,6.07-.08,1.17-.1,2.34-.07,3.51-1.1-1.38-2.14-2.85-3.15-4.41-.81-1.24-2.71,0-1.92,1.25,2.6,4.12,5.45,8.09,9.39,11.02,4.84,3.61,10.37,3.94,14.15,9.23.13.18.29.29.45.36-.08,5.09-1.11,9.57,1.33,14.47,2.69,5.39,7.28,10.39,11.16,14.93,5.28,6.18,8.71,11.02,8.97,19.52.2,6.39-2.54,11.47-4.01,17.37-1.97-3.7-4.86-6.8-7.74-10.27-.11-.14-.22-.28-.34-.41.8-5.32,1.18-10.45,3.1-15.65.61-1.66-1.82-2.65-2.54-1.04-1.68,3.73-3.25,8.05-3.83,12.35-1.03-1.53-1.98-3.11-2.77-4.8-1.57-3.34-2.03-6.72-2.92-10.24-.19-.76-1.32-1.1-1.65-.22-2.07,5.59.8,12.16,3.8,16.86,1.01,1.59,2.21,3.07,3.48,4.52,0,0,0,.01,0,.02.1.72.58,1.13,1.13,1.25,4.06,4.47,8.47,8.74,9.76,14.7.03.13.07.24.12.34.45,2.43,1.47,4.73,3.05,6.96,3.3,4.67,9.38,9.13,8.94,15.27-3.41-7.37-10.8-11.38-18.09-15.46-3.66-2.05-7.52-4.27-10.11-7.67-1.99-2.61-2.89-5.78-4.43-8.64-1.95-3.63-5.1-6.2-7.81-9.15.45-5.76,2.73-10.86,5.08-16.14,1.6-3.59,2.4-6.6.05-9.96-.56-.8-1.79-.2-1.52.73,1.48,5.12-3.07,11.08-4.72,15.81-.71,2.04-1.22,4.09-1.56,6.17-.08-.13-.17-.26-.26-.4-3.21-5.35-4.12-11.62-4.51-18.03,2.74-4.67,5-10.2,6.23-15.71.07-.03.14-.08.2-.15,1.67-2.23,7.36-3.3,5.45-7.19-.36-.73-1.37-.33-1.55.3-.58,2.08-2.26,3.26-3.65,4.72.28-1.69.48-3.38.53-5.01.04-1.4-1.87-1.25-2.23-.15-1.34,4.11-1.92,8.52-3.04,12.71-.68,2.56-1.41,5.1-2.1,7.65-.24-5.6-.29-11.22-1.31-16.33-.25-1.26-.6-2.39-1-3.47.06-2.27.22-4.53.51-6.77.36-2.84,1.34-5.66,1.39-8.52.02-1.16-1.57-1.28-2.06-.41-1.55,2.73-1.84,6.35-2.15,9.43-.05.5-.08.99-.11,1.48-1.28-2.02-2.79-3.96-4.41-6.12-3.99-5.33-5.91-11.43-9.13-17.14-.49-.86-2.05-.39-1.89.62.78,4.67,2.5,9.53,4.69,13.87-4.41-2.44-8.89-4.88-12.51-8.32-.45-.43-1.29-.04-1.21.59.33,2.84,2.08,4.35,4.38,5.89,3.8,2.54,7.86,4.7,11.83,6.97.21.12.41.18.61.21Zm95.37-1.43c-.15-.44-.57-.78-1.06-.56-4.85,2.2-10.82,4.72-15.28,8.3,1.53-1.89,3.01-3.81,4.47-5.75.41-.42.78-.85,1.14-1.3,5.39-3.86,10.14-8.7,15.59-12.46-2.12,3.79-3.81,7.73-4.86,11.76Zm-1.59,29.73c-1.04.96-1.97,2.06-2.94,3.12-1.32,1.44-2.65,2.82-4.07,4.11.95-4.56,1.17-9.35,1.43-13.91.02-.35-.5-.43-.54-.07-.67,5.75-1.57,11.11-3.62,16.25-.05.04-.09.07-.14.11-1.69,1.25-3.58,2.5-5.4,3.86.47-2.06.75-4.15,1.04-6.26.54-3.89,1.75-7.4,3.03-11.1.14-.39-.38-.71-.64-.37-3.94,5.08-5.25,9.68-6.53,15.86-.37,1.75-.9,3.44-1.58,5.04.01-5.02-.66-10.22-.31-13.91.18-1.94-2.8-2.34-3.02-.39-.48,4.21-.22,8.4-.17,12.63,0,.27,0,.54,0,.81-1.11-2.38-2.7-4.6-4.12-6.41-.65-.82-1.83-.07-1.53.86.72,2.26,1.88,4.28,2.96,6.39,1.42,2.76,1.76,4.87.04,7.63-2.15,3.44-5.77,6.04-9.45,7.59-.28.12-.48.29-.6.49-1.63.75-3.19,1.66-4.66,2.83,1.13-4.23,3.25-8.42,3.63-12.71.36-4.01.08-8.3-.99-12.27.39-3.22,1.47-6.14,2.97-8.87.19-.2.38-.4.57-.6,3.18-1.54,6.4-2.96,9.53-4.65,4.27-2.31,8.7-5.66,13.81-4.34,1.39.36,1.79-1.78.43-2.17-6.13-1.75-12.38,1.39-18.06,5,4.06-4.4,8.17-8.78,12.51-12.85,2.71-1.18,5.21-3.08,7.72-4.58,3.31-1.98,6.6-3.98,9.96-5.87.05-.03.07-.07.11-.1-.95,4.04-1.23,8.19-.65,12.41-.12-.23-.25-.46-.38-.69-1.03-1.76-2.19-4.13-4.21-4.78-.33-.11-.7.25-.66.58.24,1.88,1.88,3.41,2.76,5.07,1.2,2.25,2.11,4.61,2.76,7.08-.65,2.96-1,6.11-1,9.16Zm-20.27,27.81c-.23.06-.46.13-.69.19-.66.17-1.33.34-1.99.5.71-.89,1.27-1.91,1.69-3.02,1.5-1.79,2.78-3.76,3.82-5.87,1.26-1.04,2.48-2.15,3.76-3.13.18-.14.36-.26.54-.4-2.47,3.9-5.16,7.61-7.13,11.73Zm14.12-10.62c-2.69,4.69-5.99,7.49-10.39,9.34.64-1.38,1.36-2.72,2.19-4.03,1.88-2.96,4.02-5.75,5.41-8.98.08-.2.16-.4.24-.6.84-.6,1.68-1.2,2.49-1.84,2.01-1.59,4.28-3.71,6.03-6.11-1.95,4.09-3.71,8.3-5.96,12.22Zm27.62-22.2c-3.73,3.7-7.6,6.77-12.13,9.59-2.7,1.68-5.38,3.33-7.95,5.15.3-.65.59-1.29.9-1.92,1.24-2.58,2.53-5.16,3.97-7.65.34.07.71.03,1.05-.2,2.73-1.9,4.89-3.62,8.03-4.9,2.31-.94,4.62-1.98,6.99-2.79-.33.89-.61,1.8-.87,2.72Zm-2.17,6.99c-.17.41-.36.81-.56,1.2-.59,1.13-1.3,2.16-2.08,3.13-2.04,2.38-4.59,4.36-6.89,6.59-1.68,1.63-2.94,3.38-4.03,5.26-.12.2-.23.41-.34.62-.31.57-.61,1.14-.9,1.73-.67.36-1.21.84-1.86,1.69-1.77,2.31-3.39,3.69-6,5.04-4.27,2.22-8.33,3.41-13.18,3.16-.05,0-.1,0-.15,0,1.4-.44,2.76-.96,4.06-1.62,5.65-2.87,8.81-7.98,11.44-13.44,6.19-4.91,14.39-8.15,20.49-13.35Zm-43.07,52.13c1.73-6.51,2.57-13.37,4.41-19.87,2.8.17,5.6.48,8.37-.01,3.82-.68,7.24-2.39,10.41-4.55.31-.21.62-.43.93-.65-1.88,3.34-4.05,6.43-6.47,9.35-1,.95-2.04,1.86-3.1,2.73-5.08,4.19-10.2,8.08-14.57,13Zm-17.76-13.44c-.02-.31-.02-.62-.01-.93.8-.92,1.66-1.71,2.57-2.4.32.34.79.52,1.28.31,4.51-1.94,9.32-3.13,14.22-3.46.3-.02.61-.02.91-.03-2.54,9.5-3.04,19.95-7.73,28.6-.63-8.35-10.76-13.29-11.24-22.09Z"/><path class="cls-17" d="m577.51,838.26c0,22.52-80.25,6.37-125.14,56.74H0v-473.62c29,17.22,55.13,42.76,78.92,66.55,61.95,68.47,183.42,25.01,228.21,69.81,114.6,133.68,270.38,193.43,270.38,280.51Z"/><path class="cls-9" d="m307.13,570.95c110.21,128.56,258.49,188.75,269.68,270.63.45-1.01.7-2.11.7-3.33,0-87.08-155.78-146.83-270.38-280.51-44.79-44.8-166.26-1.34-228.21-69.81-23.79-23.79-49.92-49.33-78.92-66.55v13.2c29,17.22,55.13,42.76,78.92,66.55,61.95,68.47,183.42,25.01,228.21,69.81Z"/><path class="cls-13" d="m506.57,792.97l-14.27-6.3c-18.71-3.87-37.27-5.55-55.69-5.55-108.06,0-246.77,59.09-360.38,113.88H0v-302.19c27.98,7.23,54.94,16.04,83.34,24.38,32.85,9.63,54.4,22.41,89.45,12.01,34.42-10.24,70.4-6.18,103.28,8.7,14.86,6.73,27.35,17.79,43.16,22.5,11.67,3.47,24.49.77,35.94,3.78,42.19,11.06,69.06,61.95,99.7,89.55,16.06,14.45,33.04,28.44,51.7,39.24Z"/><path class="cls-20" d="m452.36,586.03c-.75-2.97-6.68-2.87-7.21.29,0,.81-.18,1.58-.49,2.33-1.14,2.73-4.06,4.57-6.58,6.59-1.16-1.49-2.81-2.85-3.64-4.3l.99-4.3c1.82-1.68,4.82-3.6,5.55-5.99.84-2.71-2.38-4.69-2.25-8.39l.6-2.6c1.54-3.61,5.03-3.94,5.81-6.47.3-.99.18-2.08-.25-3.1-1.12-2.68-6.99-2.42-7.1.47.1.74.03,1.45-.18,2.14-.82,2.67-3.76,4.49-6.07,6.54-1.14,1.01-2.36,2.03-1.97,3.41.39,1.37,1.92,2.52,2.74,3.78,1.15,1.79,1.47,3.71.89,5.59-.64,2.06-3.37,3.34-5.03,4.98-.84.83-1.43,1.75-1.27,2.8.2,1.32,1.62,2.31,2.27,3.53,1.61,3.01.73,6.32-2.02,8.77-2.04,1.82-5.4,3.88-3.26,6.38,1.45,1.7,3.04,3.46,3.06,5.47.02,1.84-1.42,3.17-3.02,4.46.65-.84,1.16-1.7,1.33-2.57.72-3.75-4.74-6.35-4.26-8.87.48-2.52,5.19-4.09,6-8.34.72-3.78-3.74-5.9-5.48-8.64l.59-4.81c1.67-2.03,4.48-4.45,4.99-7.14.59-3.06-2.8-4.9-3.01-8.96l.36-2.91c1.21-4.12,4.66-4.84,5.21-7.7.21-1.12,0-2.3-.53-3.38-1.37-2.82-7.2-1.93-7.04,1.25.17.8.16,1.59.01,2.36-.58,3.01-3.34,5.31-5.46,7.8-1.04,1.23-2.17,2.47-1.65,3.94.52,1.46,2.15,2.57,3.08,3.87,1.31,1.84,1.8,3.92,1.4,6.04-.45,2.33-3.05,4.01-4.56,5.98-.76.99-1.27,2.07-1.01,3.2.32,1.42,1.83,2.37,2.59,3.64.77,1.28,1.12,2.65,1.1,4.03-.92-2.59-5.03-3.83-7.09-5.74l-.45-4.15c1.22-1.91,3.48-4.28,3.42-6.62-.08-2.67-3.82-3.85-4.91-7.28l-.27-2.51c.31-3.63,3.58-4.63,3.51-7.12-.03-.97-.5-1.95-1.25-2.81-1.96-2.25-7.54-.84-6.71,1.84.34.66.5,1.33.52,2,.07,2.62-2.17,4.88-3.73,7.23-.77,1.16-1.62,2.34-.79,3.53.82,1.18,2.68,1.94,3.87,2.94,1.7,1.42,2.62,3.13,2.68,4.98.06,2.03-2.17,3.75-3.23,5.58-.54.93-.81,1.9-.32,2.83.62,1.17,2.32,1.81,3.34,2.8,2.53,2.45,2.76,5.68.91,8.48-.93,1.41-2.41,3.04-2.38,4.52-.33-.35-.56-.7-.63-1.09-.43-2.38,3.59-4.67,2.87-8.66-.64-3.55-5.74-4.65-8.41-6.8l-1.14-4.47c.9-2.15,2.77-4.86,2.32-7.39-.52-2.88-4.47-3.92-6.12-7.56l-.69-2.7c-.29-3.96,2.81-5.25,2.33-7.94-.19-1.05-.83-2.08-1.72-2.96-2.33-2.3-7.69-.41-6.41,2.44.45.69.72,1.41.85,2.14.51,2.83-1.36,5.43-2.53,8.08-.58,1.3-1.23,2.64-.21,3.87,1.02,1.22,3.01,1.93,4.37,2.93,1.93,1.42,3.15,3.21,3.51,5.21.4,2.19-1.54,4.2-2.31,6.26-.39,1.04-.5,2.11.16,3.08.82,1.23,2.62,1.81,3.81,2.81,2.94,2.49,3.71,5.97,2.32,9.12-.49,1.12-1.23,2.38-1.53,3.58-1.54-1.21-3.77-2.18-5.06-4.34l-.88-2.42c-.58-3.61,2.38-5.1,1.7-7.52-.27-.95-.97-1.84-1.91-2.56-2.47-1.9-7.61.34-6.13,2.84.5.59.82,1.23,1,1.89.72,2.56-.93,5.12-1.89,7.67-.47,1.25-1.02,2.55.09,3.58,1.1,1.03,3.11,1.49,4.52,2.29,2.01,1.13,3.34,2.66,3.85,4.47.55,1.98-1.2,4.01-1.8,5.98-.3.99-.33,1.98.38,2.82.9,1.06,2.72,1.42,3.96,2.23,3.08,2.01,4.1,5.14,2.97,8.18-.84,2.26-2.74,5.16.55,6.56,2.23.95,4.62,1.91,5.74,3.62,1.26,1.91.12,3.93-.8,5.94-.66,1.45-.61,3.15.35,4.41,1.06,1.41,3.4,2.11,3.87,3.79.9,3.22-4.64,6.38-.56,9.24,1.46,1.03,3.72,1.11,4.18,2.78.36,1.29-.18,3.97.34,5.81.25.9.77,1.71,1.75,2.34-.6.85-1.16,1.71-1.5,2.52-.6,1.45-.65,2.93.62,4.45l5.2-2.67-1.9,5.51c.24-.54.48-1.09.71-1.63.57-1.38,1.05-2.72,1.44-4.01l4.54-2.33c1.17-.69,1.88-1.5,2.24-2.37,1.6-3.84-2.76-6.75-2.3-8.92l.11-.33c1.19-2.64,7.56-4.2,8.66-6.83,1.29-3.1-3-5.11-2.18-7.07,1.19-2.85,6.98-5.12,8.28-8.24,1.51-3.6-3.33-6.89-2.32-9.31,1.01-2.42,5.98-3.34,7.68-7.42,1.51-3.63-2.43-6.32-3.57-9.25l1.6-4.67c2.07-1.78,5.36-3.79,6.44-6.37,1.23-2.94-1.72-5.2-1.07-9.23l.98-2.84c2.07-3.9,5.62-4.15,6.77-6.89.45-1.07.48-2.27.19-3.4Zm-15.55,16.45c.21.33.41.67.57,1.01.9,1.99.95,4.1.09,6.14-.37.87-1.04,1.61-1.83,2.28-1.11-2.17-3.61-4.08-3.12-5.67.44-1.42,2.52-2.33,4.29-3.76Zm-5,19.39c.59,1.66.55,3.38-.02,5.02-.85-1.8-3.33-3.11-2.91-4.48.26-.84.99-1.64,1.89-2.43.38.62.81,1.23,1.04,1.89Zm-28.41,12.59c-.31-1.09.53-2.28,1.29-3.65.07.17.13.34.16.52.24,1.31-.4,2.52-1.11,3.7-.15-.18-.27-.37-.33-.57Zm23.12-1.47c-.96.78-1.85,1.61-2.32,2.51l.06-.25c.28-.83,1.17-1.56,2.26-2.26Zm-13.44,25.58l-.15,1.26c.11-.49.21-.99.3-1.48.64-.93,1.31-1.87,1.7-2.75l.1.4c-.02-.15-.05-.3-.08-.45.25-.6.37-1.16.23-1.67-.07-.24-.18-.45-.3-.65l2.94-2.14c.7-.58,1.16-1.18,1.44-1.8l2.02-1.08-.65,2.82c-.99,1.07-1.65,2.35-1.71,3.6-.09,1.87,1.39,3.57.6,5.47-.75,1.8-2.84,2.92-4.57,4.16-1.46-.66-2.77-1.22-3.1-2.03l-.06-.17c-.25-1.01.45-2.23,1.29-3.47Zm8.68-8.56c-.31.23-.59.48-.86.75.25-.92.45-1.81.61-2.68l4.2-2.25c.25-.16.48-.32.68-.48-.73,1.9-2.75,3.25-4.63,4.66Zm-1.13-26.46c.15,1.71,1.84,3.22,1.3,4.97-.05.18-.13.35-.21.51-.43-.56-.96-1.06-1.46-1.54.08-.23.14-.46.13-.68-.03-.96-.63-1.67-1.4-2.27.34-.94,1.1-1.89,1.97-2.85-.25.61-.38,1.24-.32,1.85Zm-23.46-12.26c2.14,1.23,4.41,2.5,5.38,4.43,1.11,2.19-.2,4.25-1.29,6.33-.09.17-.17.35-.24.52-1.5-.59-3.07-1.1-4.24-1.83l-1.46-4.01c.56-1.6,1.67-3.57,1.84-5.44Z"/></g></g></g></svg>