<?xml version="1.0" encoding="UTF-8"?><svg xmlns="http://www.w3.org/2000/svg" xmlns:xlink="http://www.w3.org/1999/xlink" viewBox="0 0 468.03 309.58"><defs><style>.cls-1{fill:url(#_ÂÁ_Ï_ÌÌ_È_ËÂÌÚ_254);}.cls-1,.cls-2,.cls-3,.cls-4,.cls-5,.cls-6,.cls-7,.cls-8,.cls-9,.cls-10,.cls-11,.cls-12,.cls-13{mix-blend-mode:screen;}.cls-1,.cls-2,.cls-3,.cls-4,.cls-5,.cls-6,.cls-7,.cls-8,.cls-9,.cls-10,.cls-11,.cls-12,.cls-13,.cls-14,.cls-15{fill-rule:evenodd;stroke-width:0px;}.cls-2{fill:url(#_ÂÁ_Ï_ÌÌ_È_ËÂÌÚ_243);}.cls-3{fill:url(#_ÂÁ_Ï_ÌÌ_È_ËÂÌÚ_268);}.cls-4{fill:url(#_ÂÁ_Ï_ÌÌ_È_ËÂÌÚ_254-3);}.cls-5{fill:url(#_ÂÁ_Ï_ÌÌ_È_ËÂÌÚ_254-2);}.cls-6{fill:url(#_ÂÁ_Ï_ÌÌ_È_ËÂÌÚ_268-4);}.cls-7{fill:url(#_ÂÁ_Ï_ÌÌ_È_ËÂÌÚ_268-2);}.cls-8{fill:url(#_ÂÁ_Ï_ÌÌ_È_ËÂÌÚ_268-3);}.cls-9{fill:url(#_ÂÁ_Ï_ÌÌ_È_ËÂÌÚ_268-5);}.cls-10{fill:url(#_ÂÁ_Ï_ÌÌ_È_ËÂÌÚ_254-4);}.cls-10,.cls-11,.cls-12,.cls-13{opacity:.5;}.cls-11{fill:url(#_ÂÁ_Ï_ÌÌ_È_ËÂÌÚ_254-7);}.cls-12{fill:url(#_ÂÁ_Ï_ÌÌ_È_ËÂÌÚ_254-6);}.cls-13{fill:url(#_ÂÁ_Ï_ÌÌ_È_ËÂÌÚ_254-5);}.cls-16{opacity:.54;}.cls-14{fill:#679ff5;}.cls-15{fill:#93b4f5;}.cls-17{isolation:isolate;}</style><linearGradient id="_ÂÁ_Ï_ÌÌ_È_ËÂÌÚ_268" x1="205.34" y1="292.18" x2="205.34" y2="1.48" gradientUnits="userSpaceOnUse"><stop offset="0" stop-color="#000"/><stop offset=".21" stop-color="#000003"/><stop offset=".41" stop-color="#02030e"/><stop offset=".6" stop-color="#060721"/><stop offset=".79" stop-color="#0b0d3b"/><stop offset=".97" stop-color="#11145d"/><stop offset="1" stop-color="#131664"/></linearGradient><linearGradient id="_ÂÁ_Ï_ÌÌ_È_ËÂÌÚ_268-2" x1="212.36" y1="286.14" x2="212.36" y2="5.29" xlink:href="#_ÂÁ_Ï_ÌÌ_È_ËÂÌÚ_268"/><linearGradient id="_ÂÁ_Ï_ÌÌ_È_ËÂÌÚ_268-3" x1="163.94" y1="291.04" x2="163.94" y2="10.19" xlink:href="#_ÂÁ_Ï_ÌÌ_È_ËÂÌÚ_268"/><linearGradient id="_ÂÁ_Ï_ÌÌ_È_ËÂÌÚ_268-4" x1="260.92" y1="309.58" x2="260.92" y2="26.74" xlink:href="#_ÂÁ_Ï_ÌÌ_È_ËÂÌÚ_268"/><linearGradient id="_ÂÁ_Ï_ÌÌ_È_ËÂÌÚ_268-5" x1="216.71" y1="306.25" x2="216.71" y2="25.4" xlink:href="#_ÂÁ_Ï_ÌÌ_È_ËÂÌÚ_268"/><linearGradient id="_ÂÁ_Ï_ÌÌ_È_ËÂÌÚ_254" x1="234.01" y1="37.81" x2="234.01" y2="0" gradientUnits="userSpaceOnUse"><stop offset="0" stop-color="#121136"/><stop offset="1" stop-color="#122e5b"/></linearGradient><linearGradient id="_ÂÁ_Ï_ÌÌ_È_ËÂÌÚ_243" x1="234.58" y1="108.2" x2="234.58" y2="33.65" gradientUnits="userSpaceOnUse"><stop offset="0" stop-color="#000"/><stop offset="1" stop-color="#110639"/></linearGradient><linearGradient id="_ÂÁ_Ï_ÌÌ_È_ËÂÌÚ_254-2" x1="232.61" y1="30.93" x2="343.95" y2="30.93" xlink:href="#_ÂÁ_Ï_ÌÌ_È_ËÂÌÚ_254"/><linearGradient id="_ÂÁ_Ï_ÌÌ_È_ËÂÌÚ_254-3" x1="159.18" y1="9.53" x2="415.48" y2="9.53" xlink:href="#_ÂÁ_Ï_ÌÌ_È_ËÂÌÚ_254"/><linearGradient id="_ÂÁ_Ï_ÌÌ_È_ËÂÌÚ_254-4" x1="112" y1="51.48" x2="280.69" y2="51.48" xlink:href="#_ÂÁ_Ï_ÌÌ_È_ËÂÌÚ_254"/><linearGradient id="_ÂÁ_Ï_ÌÌ_È_ËÂÌÚ_254-5" x1="259.41" y1="67.69" x2="398.81" y2="67.69" xlink:href="#_ÂÁ_Ï_ÌÌ_È_ËÂÌÚ_254"/><linearGradient id="_ÂÁ_Ï_ÌÌ_È_ËÂÌÚ_254-6" x1="249.03" y1="106.87" x2="297.05" y2="106.87" xlink:href="#_ÂÁ_Ï_ÌÌ_È_ËÂÌÚ_254"/><linearGradient id="_ÂÁ_Ï_ÌÌ_È_ËÂÌÚ_254-7" x1="228.53" y1="123.87" x2="246.23" y2="123.87" xlink:href="#_ÂÁ_Ï_ÌÌ_È_ËÂÌÚ_254"/></defs><g class="cls-17"><g id="Layer_1"><polygon class="cls-3" points="222.78 1.48 69.61 292.18 263.08 288.13 341.07 1.48 222.78 1.48"/><polygon class="cls-7" points="251.78 5.29 118.7 286.14 189.23 286.14 306.01 5.29 251.78 5.29"/><polygon class="cls-8" points="227.52 10.19 94.44 291.04 106.43 287.69 233.45 10.45 227.52 10.19"/><polygon class="cls-6" points="308.9 26.74 205.3 309.53 213.4 309.58 316.53 27.65 308.9 26.74"/><polygon class="cls-9" points="255.76 25.4 132.27 302.25 193.21 306.25 301.16 29.2 255.76 25.4"/><g class="cls-16"><path class="cls-1" d="m0,0s56.58,10.54,159.18,13.74l-13.28-6.87s82.51,9.3,127.96,17.54c0,0-52.81,6.4-94.85,6.4,0,0,118.3,9.41,184.72,6.4l-59.12-12.8L468.03,0H0Z"/><path class="cls-2" d="m175.26,38.15s-109.76-5.86-159.43-4.21c0,0,149.18,21.28,155.88,26.97,6.7,5.69-19.71,6.29-22.07,7.77-2.36,1.48,120.74,2.87,132.1,10.74,0,0-65.89,13.5-71.4,18.48,0,0,37.84,3.51,66.61,10.09,0,0-42.93,2.49-66.61-10.09,0,0,87.65-5.06,103.14-11.42,0,0-47.17-15.01-75.55-17.8,0,0,168.15.47,215.39-5.86,0,0-178.15-16.6-278.06-24.67Z"/><path class="cls-5" d="m232.61,31.53s32.73-6.71,61.29-4.98c28.55,1.73,50.05,8.54,50.05,8.54,0,0-70.55,2.49-111.34-3.56Z"/><path class="cls-4" d="m159.18,0s67.06,16.72,129.1,18.91c62.04,2.19,127.21-18.91,127.21-18.91H159.18Z"/><path class="cls-10" d="m112,40.06s58.33,0,103.26,3.79c44.93,3.79,65.43,11.86,65.43,11.86,0,0-35.92,11.12-81.72,5.69-45.79-5.42-86.97-21.34-86.97-21.34Z"/><path class="cls-13" d="m259.41,68.16s31.53-1.31,52.22-2.02c20.69-.71,87.18.53,87.18.53,0,0-87.57,5.12-139.4,1.49Z"/><path class="cls-12" d="m249.03,105.99s10.49,3.41,26.93,3.98c16.85.59,21.09-1.29,21.09-1.29,0,0-17.45-9.19-48.02-2.69Z"/><path class="cls-11" d="m228.53,123.74s3.05,1.16,9.11,1.21c5.78.06,8.59-.63,8.59-.63,0,0-6.35-3.05-17.7-.59Z"/></g><path class="cls-15" d="m226.57,31.36c1.38-.29,2.75-.47,4.15-.36,1.08.08,2.12.6,3.19.73,1.2.14,2.48,0,3.69-.02,1.38-.01,2.7.29,4.08.33,1.24.03,2.42.69,3.66.72,1.91.05,3.78.06,5.69.29,2.07.25,4.06.39,6.14.39,1.57,0,3.07.05,4.61.42,1.23.3,3.85,2.14,1.79,3.64-.96.7-2.07.62-3.11.85-.9.21-1.71.24-2.62.26-.87.03-1.65.38-2.55.36-2.03-.03-4.1-.58-6.13-.74-4.26-.34-8.52-.5-12.77.01-2.14.26-4.58.26-6.68-.31-1.33-.36-2.23-.78-3.28-1.87-.64-.67-1.15-1.21-1.96-1.59-1.1-.51-2.42-.59-3.4-1.47.19-1.14,2.37-1.4,3.08-1.58.81-.2,1.34.26,2.41-.07Z"/><path class="cls-15" d="m208.79,36.47c1.64,0,3.16-.06,4.73.42.68.21,1.58,1.03.52,1.48-.64.27-1.62.3-2.31.09-.12-.04-.27-.24-.44-.28-.22-.06-.46.1-.68.03-.36-.11-.57-.37-1-.41-.06-.35-.04-.63-.04-.99l-.79-.35Z"/><path class="cls-14" d="m289.45,50.51c-1.95-.44-3.69-.26-5.66.22-.39.1-2.92.36-2.73,1.1.48.02.7.46,1.12.67.88.45,2,.8,2.92,1.05,1.85.5,4.05.79,5.94.77,3.34-.04,6.66.16,9.97-.44.95-.17,1.79-.19,2.75-.24.74-.04,1.43-.34,2.17-.38,2.06-.11,4.08.15,6.12-.25,1.25-.24,2.41.13,3.62-.51.5-.27,1.75-.72,1.25-1.66-.37-.68-1.72-.33-2.25-.33-1.25,0-2.29-.07-3.52-.42-3.54-1.03-7.24-1.61-10.87-1.66-.85-.01-1.6.32-2.44.37-.53.04-.99-.07-1.52.06-.81.19-1.65.56-2.46.62-1.02.08-2.03.36-3.05.34-.52-.01-.88.15-1.37.27-.39.1-.93-.09-1.28.14-.01.1-.03.19,1.28.29Z"/><path class="cls-15" d="m272.37,25.6c4.02-.73,8.03-1.06,12.09-1.03,2.08.02,4.14-.48,6.23-.38,1.9.1,3.86.28,5.74.7,1.27.29,2.52.66,3.79.96.97.23,2.73.26,3.13,1.83.63,2.53-3.84,1.78-4.69,1.73-1.68-.09-3.27-.53-4.97-.33-1.58.18-3.16.61-4.75.68-4.35.2-8.68-.38-13.03-.36-4.18.02-8.34,0-12.46-1.04-2.13-.54-4.31-.77-6.42-1.39-1-.29-2.07-.3-3.03-.77.13-.65,1.96-.73,2.31-.82,1.86-.46,3.71-.6,5.58-.91,1-.17,1.99-.45,3-.18.82.21,1.64.44,2.47.59,2.52.46,5.09.37,5.02.72Z"/><path class="cls-15" d="m308.37,25.6c.8.16,1.45.49,2.14.67.64.16,1.36,0,2.02.02.83.02,1.76.18,2.56.43.35.11,1.3.55,1.44.93.28.75-.3,1.16-.7,1.37-1.53.81-3.26.34-4.83,0-.91-.19-1.81-.42-2.45-1.27-.24-.32-.92-1.33-.19-1.46v-.69Z"/><path class="cls-15" d="m227.57,54.34c1.02-.06,1.89.1,2.78.09.83-.01,1.72-.36,2.54-.52,1.04-.2,2.24-.3,3.27-.25.46.02,1.7.2,1.93.54.44.67-.24,1.22-.71,1.54-1.83,1.21-4.06,1.2-6.08,1.29-1.17.05-2.33.06-3.23-.6-.34-.25-1.32-1.07-.41-1.39l-.08-.68Z"/><path class="cls-15" d="m240.84,10.03c2.43.41,4.73,1.38,7.19,1.75,4.12.61,8.28.76,12.4,1.53,6.75,1.25,13.68,2.71,20.51,2.23,2.75-.19,5.49-.54,8.24-.7,1.36-.08,2.7-.33,4.07-.32,1.55.01,3.11.1,4.66-.06,2.62-.28,5.24-.44,7.84-1.02,2.44-.54,4.81-2.05,7.09-3.24.37-.2,2.9-1.47,2.02-2.21-.42-.36-1.51-.38-2.01-.54-1.53-.5-3.06-.73-4.61-1.05-3.25-.67-6.56-1.24-9.85-1.23-2.64.01-5.25-.23-7.88-.32-2.42-.09-4.87-.38-7.28-.62-3.99-.39-7.99-.42-11.98-.92-2.41-.3-4.83-.21-7.26-.21-2.39,0-4.77-.02-7.15.16-3.7.29-7.45.68-11.13,1.31-1.43.25-4.64.48-5.11,2.88-.07.37,0,.73-.08,1.1-.07.35-.32.42-.19.91.2.75.98,1.39.51.55Z"/><path class="cls-15" d="m220.61,8.3c-1.31-.37-2.39-.77-3.75-.72-2.12.07-4.25.65-6.36.9-1.41.17-2.83.34-4.22.68-.72.18-1.07.51-1.67.96.17.77,1.05.56,1.52.58,1.01.05,1.96.59,2.97.71,2.49.3,4.79,1.4,7.31,1.38,1.49,0,2.59.25,3.79-1.05.28-.3,1.56-2.38.41-3.45Z"/><path class="cls-14" d="m255.82,54.66c-.78-.35-1.5-.75-2.33-.7-.77.04-1.69.26-2.44.43-.55.13-1.06.42-1.6.56-.32.08-.67-.02-.97.13.11.96,1.57.93,2.08,1.06,1.1.28,2.22.16,3.3.43,1.41.36,2.34.26,2.99-1.48-.42-.11-.85-.52-1.29-.42h.26Z"/><path class="cls-15" d="m234.24,25.65c-.78-.35-1.5-.75-2.33-.7-.77.04-1.69.26-2.44.43-.55.13-1.06.42-1.6.56-.32.08-.67-.02-.97.13.11.96,1.57.93,2.07,1.06,1.1.28,2.22.16,3.3.43,1.41.36,2.34.26,2.99-1.48-.42-.11-.85-.52-1.29-.42h.26Z"/><path class="cls-15" d="m261.34,59.16c.89-.19,1.64-.46,2.48-.18.45.16,1.04.19,1.41.61.98,1.1-.59.95-1.14.95-.79,0-1.58,0-2.36,0-.31,0-.94.18-1.2.03-.46-.27-.15-.61.02-1.06l.79-.35Z"/><path class="cls-14" d="m320.98,47.39c-.65.38-1.88.73-2.27,1.65.23.57.97.94,1.4,1.11.48.19,1.89.78,2.31.33.44-.47.09-1.21-.19-1.63-.4-.61-.61-.8-1.25-.78v-.69Z"/><path class="cls-15" d="m315.07,11.07c-.4.13-.62.22-.96.43-.21.13-.57.21-.75.44-.29.37.07.47.33.56.6.21,1.23,0,1.82.25.38.16.62.22,1.02.22.57,0,1.25-.22.98-1.13-.13-.45-.41-.57-.74-.71-.79-.35-1.55-.29-2.35-.06h.66Z"/><path class="cls-15" d="m316.39,19.37c.35-.18.82-.56,1.19-.22.24.21.28.55.26.92-.04,1.09-1.2,1.32-1.82,1.08-.32-.12-.55-.27-.82-.52-.28-.26-.33-.33-.13-.73.39-.8,1.28-1.48,1.98-.86l-.66.35Z"/><path class="cls-15" d="m319.01,28.19c-.32.11-.64.24-.95.4-.01.44.12.59.42.64.32.06.84.09,1.11-.18.26-.25.31-.56.02-.79-.31-.24-.58-.26-.86-.08h.26Z"/><path class="cls-15" d="m297.34,57.08c.25-.33.38-.61.7-.75.31-.14.68-.11.99-.12.45-.01.84-.05,1.08.52.47,1.13-.42,1.65-1.12,1.91-.67.25-1.84.78-2.44,0-.4-.52-.6-1.56.27-1.39l.53-.17Z"/><path class="cls-15" d="m280.78,43.42c-.29.17-.85.31-.8.86.04.48.64.68.93.78.45.15.9.09,1.36.09.29,0,.62.07.89-.13.32-.23.33-.77.16-1.13-.47-1-1.54-.77-2.27-.65l-.26.17Z"/><path class="cls-15" d="m227.71,9.26c.55-.9.63-1.06,1.4-1.23.5-.11,1-.16,1.5-.27.94-.21,1.96.05,2.62.98.47.66.54,1.61.15,2.42-.42.88-1.67,1.25-2.39,1.43-.8.21-1.73.06-2.51-.15-.51-.14-1.27-.17-1.53-.9-.22-.64.17-3.08.94-2.8l-.2.52Z"/><path class="cls-15" d="m175.66,48.77c-.78.74-2.52,2.85-1.04,4.2.72.65,2.48.97,3.1-.27.31-.62-.2-2.01-.43-2.6-.29-.73-1.4-1.59-1.83-.97l.2-.36Z"/><path class="cls-14" d="m243.54,44.54c.54-.14,2.12-.73,2.53.25.1.23.07.96.02,1.18-.14.63-.43.49-.79.64-.3.12-.25.28-.62.22-.31-.06-.76-.23-1.03-.46-.32-.28-.93-1.35-.15-1.35.01-.07.03-.14.04-.21v-.26Z"/><path class="cls-14" d="m235.65,75.42c.49-.21,1.18-.7,1.73-.47.06.03.39.36.44.4.43.35.58.81.16,1.3-.33.38-.93.45-1.34.34-.42-.11-.62-.7-.99-.79v-.78Z"/></g></g></svg>