<?xml version="1.0" encoding="UTF-8"?><svg xmlns="http://www.w3.org/2000/svg" xmlns:xlink="http://www.w3.org/1999/xlink" viewBox="0 0 2391.46 859.49"><defs><style>.cls-1{mix-blend-mode:overlay;opacity:.21;}.cls-2{fill:url(#linear-gradient-5);}.cls-2,.cls-3,.cls-4,.cls-5,.cls-6,.cls-7,.cls-8,.cls-9,.cls-10,.cls-11,.cls-12,.cls-13{mix-blend-mode:screen;stroke-width:0px;}.cls-3{fill:url(#linear-gradient-7);}.cls-4{fill:url(#linear-gradient-6);}.cls-5{fill:url(#linear-gradient-4);}.cls-6{fill:url(#linear-gradient-2);}.cls-7{fill:url(#linear-gradient-3);}.cls-8{fill:url(#linear-gradient-8);}.cls-9{fill:url(#linear-gradient-9);}.cls-10{fill:url(#linear-gradient);}.cls-11{fill:url(#linear-gradient-11);}.cls-12{fill:url(#linear-gradient-10);}.cls-13{fill:url(#linear-gradient-12);}.cls-14{isolation:isolate;}</style><linearGradient id="linear-gradient" x1="1115.31" y1="-96.7" x2="951.64" y2="822.66" gradientUnits="userSpaceOnUse"><stop offset="0" stop-color="#fff"/><stop offset="1" stop-color="#000" stop-opacity="0"/></linearGradient><linearGradient id="linear-gradient-2" x1="1054" y1="-10.79" x2="757.07" y2="639.76" xlink:href="#linear-gradient"/><linearGradient id="linear-gradient-3" x1="1044.96" y1="14.57" x2="419.28" y2="547.98" xlink:href="#linear-gradient"/><linearGradient id="linear-gradient-4" x1="929.38" y1="-41.19" x2="442.98" y2="338.9" xlink:href="#linear-gradient"/><linearGradient id="linear-gradient-5" x1="930.94" y1="-26.83" x2="351.89" y2="258.99" xlink:href="#linear-gradient"/><linearGradient id="linear-gradient-6" x1="942.1" y1="-62.79" x2="362.12" y2="153.95" xlink:href="#linear-gradient"/><linearGradient id="linear-gradient-7" x1="6349.45" y1="-57.3" x2="6214.35" y2="789.09" gradientTransform="translate(7550) rotate(-180) scale(1 -1)" xlink:href="#linear-gradient"/><linearGradient id="linear-gradient-8" x1="1260.21" y1="-22.95" x2="1592.37" y2="463.37" xlink:href="#linear-gradient"/><linearGradient id="linear-gradient-9" x1="1333.5" y1="-6.2" x2="1793.68" y2="377.53" xlink:href="#linear-gradient"/><linearGradient id="linear-gradient-10" x1="1455.74" y1="-51.79" x2="1939.42" y2="298.01" xlink:href="#linear-gradient"/><linearGradient id="linear-gradient-11" x1="1716.68" y1="-121.2" x2="2097.94" y2="61.21" gradientTransform="translate(-177.94 282.69) rotate(-4.01)" xlink:href="#linear-gradient"/><linearGradient id="linear-gradient-12" x1="1689.36" y1="-139.26" x2="2157.62" y2="60.35" gradientTransform="translate(-129.1 204.7) rotate(-2.91)" xlink:href="#linear-gradient"/></defs><g class="cls-14"><g id="Layer_1"><g class="cls-1"><polygon class="cls-10" points="972 840.57 899.76 840.57 1135.84 14.01 1144.29 14.01 972 840.57"/><polygon class="cls-6" points="765.6 854.79 572.08 811.35 1095.84 8.3 1099.25 18.03 765.6 854.79"/><polygon class="cls-7" points="203.03 809.61 84.21 756.37 1053.65 44.97 1063.58 50.83 203.03 809.61"/><polygon class="cls-5" points="220.51 560.23 101.68 506.99 929.16 43.98 939.09 49.84 220.51 560.23"/><polygon class="cls-2" points="87.49 412.32 52.91 367.63 890.91 26.1 899.76 27.51 87.49 412.32"/><polygon class="cls-4" points="27.85 292.18 0 243.94 880.41 0 888.98 2.4 27.85 292.18"/><polygon class="cls-3" points="1232.3 843.31 1453.79 827.55 1223.65 14.01 1215.2 14.01 1232.3 843.31"/><polygon class="cls-8" points="1701.83 859.49 1947.73 747.79 1263.65 8.3 1260.24 18.03 1701.83 859.49"/><polygon class="cls-9" points="2206.93 798.27 2325.75 745.03 1356.31 33.63 1346.37 39.49 2206.93 798.27"/><polygon class="cls-12" points="2151.33 555.25 2296.89 443.26 1442.68 38.99 1432.75 44.85 2151.33 555.25"/><polygon class="cls-11" points="2298.33 376.26 2329.07 329.66 1464.31 37.56 1455.61 39.48 2298.33 376.26"/><polygon class="cls-13" points="2366.6 274.04 2391.46 224.69 1497.24 18.15 1488.83 20.9 2366.6 274.04"/></g></g></g></svg>