<?xml version="1.0" encoding="UTF-8"?><svg id="Layer_1" xmlns="http://www.w3.org/2000/svg" viewBox="0 0 1000 1000"><defs><style>.cls-1{fill:#27e4ea;}</style></defs><rect class="cls-1" x="172.4" y="172.4" width="25.2" height="25.2" rx="12.6" ry="12.6"/><rect class="cls-1" x="222.8" y="172.4" width="25.2" height="25.2" rx="12.6" ry="12.6"/><rect class="cls-1" x="273.2" y="172.4" width="25.2" height="25.2" rx="12.6" ry="12.6"/><path class="cls-1" d="m833.9,122H166.1c-24.25,0-44.1,19.84-44.1,44.1v667.8c0,24.25,19.84,44.1,44.1,44.1h667.8c24.25,0,44.1-19.84,44.1-44.1V166.1c0-24.25-19.84-44.1-44.1-44.1Zm0,730.8H166.1c-10.39,0-18.9-8.5-18.9-18.9V166.1c0-10.39,8.5-18.9,18.9-18.9h667.8c10.39,0,18.9,8.5,18.9,18.9h0c0,3.48-2.82,6.3-6.3,6.3H329.9c-3.48,0-6.3,2.82-6.3,6.3v12.6c0,3.48,2.82,6.3,6.3,6.3h516.6c3.48,0,6.3,2.82,6.3,6.3v630c0,10.39-8.5,18.9-18.9,18.9Z"/><path class="cls-1" d="m815,235.4H185c-6.93,0-12.6,5.67-12.6,12.6v75.6c0,6.93,5.67,12.6,12.6,12.6h630c6.93,0,12.6-5.67,12.6-12.6v-75.6c0-6.93-5.67-12.6-12.6-12.6Zm-617.4,25.2h453.6v50.4H197.6v-50.4Zm604.8,50.4h-126v-50.4h126v50.4Z"/><path class="cls-1" d="m581.11,576.39l3.47-8.5,19.06-4.57c5.67-1.42,9.61-6.46,9.61-12.28v-26.46c0-5.83-3.94-10.87-9.61-12.28l-19.06-4.57-3.47-8.5,10.24-16.85c2.99-5.04,2.36-11.34-1.89-15.44l-18.58-18.74c-4.1-4.1-10.55-4.88-15.43-1.89l-16.85,10.24-8.5-3.46-4.57-19.06c-1.42-5.67-6.46-9.61-12.28-9.61h-26.46c-5.83,0-10.87,3.94-12.29,9.61l-4.57,19.06-8.5,3.46-16.85-10.24c-5.04-2.99-11.34-2.36-15.44,1.89l-18.74,18.74c-4.1,4.1-4.88,10.55-1.89,15.44l10.24,16.85-3.46,8.5-19.06,4.57c-5.67,1.42-9.61,6.46-9.61,12.28v26.46c0,5.83,3.94,10.87,9.61,12.28l19.06,4.57,3.46,8.5-10.24,16.85c-2.99,5.04-2.36,11.34,1.89,15.43l18.74,18.74c4.1,4.1,10.55,4.88,15.44,1.89l16.85-10.24,8.5,3.47,4.57,19.06c1.42,5.67,6.46,9.61,12.29,9.61h26.46c5.83,0,10.87-3.94,12.28-9.61l4.57-19.06,8.5-3.47,16.85,10.24c5.04,2.99,11.34,2.36,15.43-1.89l18.74-18.74c4.1-4.1,4.88-10.55,1.89-15.43l-10.39-16.85Zm-17.32-24.1l-8.5,20.32c-1.57,3.78-1.26,8.03.95,11.34l8.5,13.86-4.73,4.72-13.86-8.5c-3.47-2.05-7.72-2.52-11.34-.95l-20.32,8.5c-3.78,1.58-6.46,4.73-7.4,8.66l-3.78,15.59h-6.61l-3.78-15.59c-.95-3.94-3.78-7.09-7.4-8.66l-20.32-8.5c-3.78-1.58-8.03-1.26-11.34.95l-13.86,8.5-4.73-4.72,8.5-13.86c2.05-3.47,2.36-7.72.95-11.34l-8.5-20.32c-1.57-3.78-4.72-6.46-8.66-7.4l-15.59-3.78v-6.62l15.59-3.78c3.94-.95,7.09-3.78,8.66-7.4l8.5-20.32c1.57-3.78,1.26-8.03-.95-11.34l-8.5-13.86,4.73-4.73,13.86,8.5c3.46,2.05,7.72,2.36,11.34.95l20.32-8.5c3.78-1.58,6.46-4.73,7.4-8.66l3.78-15.59h6.61l3.78,15.59c.95,3.94,3.78,7.09,7.4,8.66l20.32,8.5c3.78,1.58,8.03,1.26,11.34-.95l13.86-8.5,4.73,4.73-8.5,13.86c-2.05,3.46-2.36,7.72-.95,11.34l8.5,20.32c1.57,3.78,4.73,6.46,8.66,7.4l15.59,3.78v6.62l-15.59,3.78c-3.78.95-7.09,3.62-8.66,7.4Z"/><path class="cls-1" d="m500,500c-20.95,0-37.8,16.85-37.8,37.8s16.85,37.8,37.8,37.8,37.8-16.85,37.8-37.8-17.01-37.8-37.8-37.8Zm0,50.4c-6.93,0-12.6-5.67-12.6-12.6s5.67-12.6,12.6-12.6,12.6,5.67,12.6,12.6-5.67,12.6-12.6,12.6Z"/><rect class="cls-1" x="172.4" y="374" width="189" height="25.2"/><rect class="cls-1" x="172.4" y="424.4" width="151.2" height="25.2"/><rect class="cls-1" x="172.4" y="500" width="138.6" height="25.2"/><rect class="cls-1" x="172.4" y="550.4" width="138.6" height="25.2"/><rect class="cls-1" x="172.4" y="626" width="151.2" height="25.2"/><rect class="cls-1" x="172.4" y="676.4" width="201.6" height="25.2"/><rect class="cls-1" x="172.4" y="752" width="428.4" height="25.2"/><rect class="cls-1" x="172.4" y="802.4" width="491.4" height="25.2"/><path class="cls-1" d="m815,374h-151.2c-6.93,0-12.6,5.67-12.6,12.6v39.13c0,6.23,5.05,11.27,11.27,11.27h4.21c5.37,0,9.72-4.35,9.72-9.72v-28.08h126v340.2h-45.2l-117.02-117.02c47-77.86,21.66-179.25-56.7-225.73-76.74-45.52-176.74-20.79-223.37,55.28-47.58,77.62-22.81,179.07,55,226.04,52.13,31.5,117.34,31.5,169.47,0l139.55,139.55c15.28,15.43,40.32,15.43,55.6,0,14.33-14.33,15.43-37.33,2.36-53.08h32.92c6.93,0,12.6-5.67,12.6-12.6v-365.24c0-6.93-5.67-12.6-12.6-12.6Zm-453.6,163.8c0-86.65,79.53-154.74,169.57-135.24,46.87,10.15,94.12,57.4,104.27,104.27,19.49,90.05-48.59,169.57-135.24,169.57-76.55-.16-138.44-62.05-138.6-138.6Zm400.09,262.34c-5.49,5.06-14.58,4.58-19.86-.7l-136.43-136.43c7.25-6.14,13.86-12.76,20-20l136.71,136.71c5.65,5.81,5.51,14.94-.43,20.42Z"/><rect class="cls-1" x="701.6" y="437" width="75.6" height="25.2"/><rect class="cls-1" x="701.6" y="500" width="75.6" height="25.2"/><rect class="cls-1" x="701.6" y="563" width="75.6" height="25.2"/><rect class="cls-1" x="701.6" y="626" width="75.6" height="25.2"/></svg>