<svg id="Layer_1" xmlns="http://www.w3.org/2000/svg" viewBox="0 0 1000 1000"><defs><style>.cls-1{fill:#27e4ea;}</style></defs><path class="cls-1" d="m406.15,666.95h-74.49c-6.93-.52-9.89-1.22-11.12-1.64-.23-1.95-.03-5.99.13-9.07.18-3.71.82-8.61,1.57-14.28,1.89-14.5,4.24-32.54,1.69-49.67-5.62-37.65-24.28-49.2-34.91-52.74-15.08-5.02-32.66-.54-44.76,11.44-10.74,10.63-14.67,24.72-10.51,37.68,9.05,28.18-9.08,54.1-29.66,78.29h-71.38c-5.92,0-10.72,4.8-10.72,10.72v189.61c0,5.92,4.8,10.72,10.72,10.72h249.16c17.93,0,32.4-13.78,35.99-34.3l24.28-138.74c1.52-8.69-.95-17.4-6.95-24.54-6.97-8.31-18.09-13.47-29.04-13.47Zm-262.72,21.42h54.88v168.19h-54.88v-168.19Zm238.44,168.19h-162.14v-174.91c19.21-22.33,47.78-57.89,34.42-99.53-2.37-7.39,2.83-13.58,5.18-15.91,5.26-5.2,14.38-9.17,22.91-6.34,10.3,3.43,17.57,16.06,20.48,35.57,2.11,14.16-.03,30.56-1.74,43.73-.8,6.12-1.48,11.41-1.72,15.98-.47,9.33-.87,17.39,4.47,23.89,5.38,6.55,13.88,8.37,26.74,9.31.26.02.52.03.78.03h74.88c4.71,0,9.67,2.28,12.64,5.81,1.91,2.28,2.67,4.65,2.25,7.07l-4.86,27.79h-79.09c-5.92,0-10.72,4.8-10.72,10.72s4.8,10.72,10.72,10.72h75.34l-7.09,40.56h-73.98c-5.92,0-10.72,4.8-10.72,10.72s4.8,10.72,10.72,10.72h70.24l-4.82,27.55c-.48,2.74-3.47,16.54-14.88,16.54Zm345-280.82c-83.33,0-151.13,67.8-151.13,151.13,0,27.7,7.5,54.6,21.76,78.13l-20.99,58.52c-1.4,3.9-.42,8.26,2.51,11.19,2.93,2.93,7.29,3.91,11.19,2.51l58.52-20.99c23.54,14.24,50.44,21.76,78.13,21.76,83.33,0,151.13-67.8,151.13-151.13s-67.8-151.13-151.13-151.13Zm0,280.82c-25.33,0-49.87-7.31-70.97-21.14-1.77-1.16-3.81-1.75-5.87-1.75-1.22,0-2.44.21-3.61.63l-42.07,15.09,15.09-42.07c1.13-3.16.72-6.67-1.12-9.49-13.83-21.1-21.14-45.64-21.14-70.97,0-71.52,58.19-129.7,129.7-129.7s129.7,58.19,129.7,129.7-58.18,129.71-129.7,129.71Zm80.66-129.7c0,8.45-6.85,15.3-15.3,15.3s-15.3-6.85-15.3-15.3,6.85-15.3,15.3-15.3,15.3,6.85,15.3,15.3Zm-130.7,0c0,8.45-6.85,15.3-15.3,15.3s-15.3-6.85-15.3-15.3,6.85-15.3,15.3-15.3,15.3,6.85,15.3,15.3Zm65.35,0c0,8.45-6.85,15.3-15.3,15.3s-15.3-6.85-15.3-15.3,6.85-15.3,15.3-15.3,15.3,6.85,15.3,15.3Zm-39.46-370.47c29.89,42.12,45.69,91.78,45.69,143.6,0,5.92-4.8,10.72-10.72,10.72s-10.72-4.8-10.72-10.72c0-47.35-14.43-92.72-41.74-131.21-3.42-4.82-2.29-11.51,2.54-14.93,4.83-3.42,11.51-2.29,14.94,2.54Zm-451.12,143.6c0-27.91,4.59-55.31,13.66-81.44,1.94-5.59,8.05-8.55,13.63-6.61,5.59,1.94,8.55,8.04,6.61,13.63-8.28,23.87-12.48,48.91-12.48,74.42,0,5.92-4.8,10.72-10.72,10.72-5.91,0-10.71-4.8-10.71-10.72Zm305.97,230.92c1.17,5.8-2.59,11.44-8.39,12.61-16.21,3.25-32.63,4.89-49.11,4.89-10.82,0-21.67-.7-32.5-2.11-5.87-.76-10-6.15-9.24-12.01.76-5.87,6.14-9.99,12.01-9.24,24.95,3.25,50.05,2.4,74.61-2.53,5.81-1.17,11.45,2.6,12.62,8.39Zm79.78-524.54c-2.96-5.12-1.2-11.68,3.92-14.63l31.21-18.03c5.12-2.96,11.68-1.2,14.63,3.92,2.96,5.12,1.2,11.68-3.92,14.63l-31.21,18.03c-1.69.97-3.53,1.43-5.35,1.43-3.7,0-7.3-1.92-9.28-5.36Zm-47.98-46.09l19.02-32.93c2.96-5.12,9.51-6.88,14.63-3.92,5.12,2.96,6.88,9.51,3.92,14.63l-19.02,32.93c-1.99,3.44-5.58,5.36-9.29,5.36-1.82,0-3.66-.46-5.35-1.43-5.11-2.96-6.88-9.51-3.92-14.63Zm63.91,89.27h38.02c5.92,0,10.72,4.8,10.72,10.72s-4.8,10.72-10.72,10.72h-38.02c-5.92,0-10.72-4.8-10.72-10.72s4.8-10.72,10.72-10.72Zm-181.47,259.68c5.31,0,10.33-1.94,14.31-5.55l12.84-11.65c8.18-7.43,9.36-19.76,2.72-28.7l-21.46-28.88,5.01-3.66c4.21-3.08,6.97-7.67,7.76-12.95.87-5.73-.65-11.72-4.17-16.46l-17.62-23.73c38.53-13.24,75.95-19.82,108.53-18.92,4.77,8.26,12.5,14.18,21.77,16.66,3.1.83,6.25,1.24,9.38,1.24,6.2,0,12.32-1.62,17.82-4.8,8.27-4.77,14.19-12.51,16.68-21.77,2.48-9.26,1.22-18.92-3.55-27.2l-31.77-55.02c7.29-5.33,12.52-12.93,14.89-21.78,2.75-10.28,1.34-21.01-3.98-30.23-10.24-17.74-32.15-24.62-50.49-16.55l-31.77-55.02c-9.89-17.12-31.85-23.01-48.97-13.12-17.12,9.89-23.01,31.85-13.12,48.97h0c-19.35,35.74-52.55,72.21-94.58,103.89-.44-.18-.88-.34-1.34-.47-2.74-.74-5.67-.35-8.12,1.07l-42.27,24.41c-30.87,17.83-41.49,57.43-23.66,88.3,8.6,14.9,22.55,25.57,39.27,30.06,5.61,1.5,11.29,2.25,16.93,2.25,11.18,0,22.2-2.92,32.1-8.64l.11-.06,59.65,79.83c3.63,4.86,9,7.85,15.13,8.4.65.05,1.31.08,1.97.08Zm-.18-95.06s0,.02.02.03l-4.2,3.07-22.12-29.77c1.66-.69,3.32-1.36,4.97-2.02l21.33,28.7Zm130.76-187.62c4.32,7.48,2.76,16.75-3.22,22.48l-17.86-30.92c7.95-2.31,16.76.96,21.08,8.44Zm-101.96-76.85h0c6.89-3.97,15.73-1.61,19.7,5.28l103.12,178.6c1.91,3.31,2.41,7.19,1.41,10.93-1.01,3.74-3.38,6.86-6.69,8.77-3.31,1.91-7.19,2.41-10.94,1.41-3.74-1.01-6.85-3.38-8.77-6.69l-103.11-178.6c-3.97-6.89-1.61-15.73,5.28-19.7Zm-11.47,51.84l78.38,135.75c-40.8,1.09-87.26,12.12-133.63,31.82l-39.12-67.76c40.26-30.3,73.04-65.02,94.37-99.81Zm-137.53,205.14c-11.19-3-20.52-10.13-26.26-20.07-11.91-20.63-4.82-47.12,15.82-59.03l33-19.05,43.22,74.86-33,19.05c-9.95,5.74-21.6,7.25-32.78,4.25Zm62.28,3.45l15.23-8.79,55.62,74.82-12.81,11.62-58.04-77.66Z"/></svg>