<?xml version="1.0" encoding="UTF-8"?><svg id="Layer_1" xmlns="http://www.w3.org/2000/svg" xmlns:xlink="http://www.w3.org/1999/xlink" viewBox="0 0 939.85 653.66"><defs><style>.cls-1{fill:url(#New_Gradient_Swatch-2);}.cls-1,.cls-2,.cls-3{stroke-width:0px;}.cls-2{fill:url(#New_Gradient_Swatch-3);}.cls-3{fill:url(#New_Gradient_Swatch);}</style><linearGradient id="New_Gradient_Swatch" x1="788.83" y1="307.26" x2="1323.42" y2="307.26" gradientTransform="translate(1228.96 -154.13) rotate(165.87) scale(1 -1)" gradientUnits="userSpaceOnUse"><stop offset="0" stop-color="#004aff"/><stop offset="1" stop-color="#0f67fd"/></linearGradient><linearGradient id="New_Gradient_Swatch-2" x1="428.06" y1="83.15" x2="809.38" y2="83.15" xlink:href="#New_Gradient_Swatch"/><linearGradient id="New_Gradient_Swatch-3" x1="440.5" y1="588.85" x2="821.83" y2="588.85" xlink:href="#New_Gradient_Swatch"/></defs><path class="cls-3" d="m39.46,471.66c.26,15.26-2.49,30.79-6.11,45.92,12-6.84,39.31-28.77,50.71-66.81,33.14,1.49,66.54,3.54,97.44,4.89-.03,4.53-.47,9.07-1.55,13.41,5.49-3.68,10.53-8.05,15.08-12.85,20.4.79,39.42,1.22,56.06,1.11.53.12,48.5-5.45,84.82-14.67,1.66-.41,3.35-.84,5.05-1.28-.38,21.34-4.73,42.73-9.01,63.69,23.63-21.72,42.3-48.63,54.81-77.74,51.5-18.02,108.31-48.03,140.34-81.4.49-.51.26-1.31-.41-1.48-5.68-1.49-11.82-1.34-17.85-1.37,3.69-3.88,7.19-8.11,10.31-12.61-2.53.57-5.06,1.1-7.58,1.68,2.51-.58,5.05-1.11,7.58-1.68,5.22-7.53,9.4-15.81,11.72-24.44.62-2.31-1.09-4.55-3.48-4.56-65.05-.04-129.26,7.6-190.15,24.04-4.27,1.16-8.43,2.34-12.51,3.54-33.55-4.78-60.99-39.13-76.63-35.89-2.13.44-5.94,2.15-5.27,5.57-.02,0,9.39,12.79,12.9,30,1.68,8.33,1.92,16.88.68,25.3-40.34,17.7-74.24,38.07-115.26,54.65-6.36-3.57-13.43-5.79-20.55-7.06,2.04,4.17,3.33,8.64,4.34,13.2-14.84,5.25-30.72,9.86-48.12,13.38-26.51-20.22-53.74-38.69-76.84-61.51,5.38,38.8,38.33,55.31,39.46,104.97Z"/><path class="cls-1" d="m477.82,127.46c.18,10.89-1.77,21.96-4.36,32.75,8.56-4.88,28.04-20.52,36.17-47.66,23.64,1.06,47.46,2.53,69.51,3.49-.02,3.23-.33,6.47-1.11,9.57,3.91-2.62,7.51-5.74,10.76-9.17,14.55.56,28.12.87,39.99.79.38.09,34.6-3.89,60.5-10.46,1.18-.29,2.39-.6,3.6-.91-.27,15.22-3.37,30.48-6.43,45.43,16.85-15.49,30.17-34.69,39.09-55.45,36.74-12.85,77.26-34.26,100.1-58.07.35-.36.19-.93-.29-1.06-4.05-1.06-8.43-.96-12.73-.98,2.63-2.77,5.13-5.78,7.35-8.99-1.8.4-3.61.78-5.41,1.2,1.79-.41,3.6-.79,5.41-1.2,3.73-5.37,6.7-11.28,8.36-17.43.44-1.65-.78-3.25-2.48-3.25-46.4-.03-92.2,5.42-135.63,17.15-3.05.83-6.01,1.67-8.93,2.52-23.93-3.41-43.5-27.91-54.66-25.6-1.52.31-4.24,1.54-3.76,3.97-.02,0,6.7,9.12,9.2,21.4,1.2,5.94,1.37,12.04.49,18.04-28.77,12.62-52.95,27.16-82.21,38.98-4.54-2.54-9.58-4.13-14.66-5.04,1.45,2.97,2.38,6.16,3.09,9.42-10.59,3.75-21.91,7.03-34.32,9.54-18.91-14.42-38.33-27.6-54.81-43.88,3.83,27.68,27.34,39.45,28.15,74.87Z"/><path class="cls-2" d="m589.22,620.9c.18,10.89-1.77,21.96-4.36,32.75,8.56-4.88,28.04-20.52,36.17-47.66,23.64,1.06,47.46,2.53,69.51,3.49-.02,3.23-.33,6.47-1.11,9.57,3.91-2.62,7.51-5.74,10.76-9.17,14.55.56,28.12.87,39.99.79.38.09,34.6-3.89,60.5-10.46,1.18-.29,2.39-.6,3.6-.91-.27,15.22-3.37,30.48-6.43,45.43,16.85-15.49,30.17-34.69,39.09-55.45,36.74-12.85,77.26-34.26,100.1-58.07.35-.36.19-.93-.29-1.06-4.05-1.06-8.43-.96-12.73-.98,2.63-2.77,5.13-5.78,7.35-8.99-1.8.4-3.61.78-5.41,1.2,1.79-.41,3.6-.79,5.41-1.2,3.73-5.37,6.7-11.28,8.36-17.43.44-1.65-.78-3.25-2.48-3.25-46.4-.03-92.2,5.42-135.63,17.15-3.05.83-6.01,1.67-8.93,2.52-23.93-3.41-43.5-27.91-54.66-25.6-1.52.31-4.24,1.54-3.76,3.97-.02,0,6.7,9.12,9.2,21.4,1.2,5.94,1.37,12.04.49,18.04-28.77,12.62-52.95,27.16-82.21,38.98-4.54-2.54-9.58-4.13-14.66-5.04,1.45,2.97,2.38,6.16,3.09,9.42-10.59,3.75-21.91,7.03-34.32,9.54-18.91-14.42-38.33-27.6-54.81-43.88,3.83,27.68,27.34,39.45,28.15,74.87Z"/></svg>