<?xml version="1.0" encoding="UTF-8"?><svg id="Layer_1" xmlns="http://www.w3.org/2000/svg" xmlns:xlink="http://www.w3.org/1999/xlink" viewBox="0 0 1465.72 896.32"><defs><style>.cls-1{fill:url(#linear-gradient);}.cls-1,.cls-2,.cls-3,.cls-4,.cls-5,.cls-6,.cls-7,.cls-8,.cls-9,.cls-10,.cls-11,.cls-12,.cls-13,.cls-14,.cls-15,.cls-16,.cls-17,.cls-18,.cls-19,.cls-20,.cls-21,.cls-22,.cls-23,.cls-24,.cls-25,.cls-26,.cls-27{stroke-width:0px;}.cls-2{fill:url(#linear-gradient-25);}.cls-3{fill:url(#linear-gradient-11);}.cls-4{fill:url(#linear-gradient-12);}.cls-5{fill:url(#linear-gradient-13);}.cls-6{fill:url(#linear-gradient-10);}.cls-7{fill:url(#linear-gradient-17);}.cls-8{fill:url(#linear-gradient-16);}.cls-9{fill:url(#linear-gradient-19);}.cls-10{fill:url(#linear-gradient-15);}.cls-11{fill:url(#linear-gradient-23);}.cls-12{fill:url(#linear-gradient-21);}.cls-13{fill:url(#linear-gradient-18);}.cls-14{fill:url(#linear-gradient-14);}.cls-15{fill:url(#linear-gradient-22);}.cls-16{fill:url(#linear-gradient-20);}.cls-17{fill:url(#linear-gradient-27);}.cls-18{fill:url(#linear-gradient-24);}.cls-19{fill:url(#linear-gradient-26);}.cls-20{fill:url(#linear-gradient-4);}.cls-21{fill:url(#linear-gradient-2);}.cls-22{fill:url(#linear-gradient-3);}.cls-23{fill:url(#linear-gradient-8);}.cls-24{fill:url(#linear-gradient-9);}.cls-25{fill:url(#linear-gradient-7);}.cls-26{fill:url(#linear-gradient-5);}.cls-27{fill:url(#linear-gradient-6);}</style><linearGradient id="linear-gradient" x1="805.22" y1="406.43" x2="853.66" y2="406.43" gradientTransform="translate(-156.83 55.11) rotate(-1.37)" gradientUnits="userSpaceOnUse"><stop offset="0" stop-color="#013ff4"/><stop offset="1" stop-color="#0177fd"/></linearGradient><linearGradient id="linear-gradient-2" x1="616.26" y1="353.6" x2="617.69" y2="480.42" gradientTransform="translate(-156.83 55.11) rotate(-1.37)" gradientUnits="userSpaceOnUse"><stop offset="0" stop-color="#0177fd"/><stop offset="1" stop-color="#5cc3f8"/></linearGradient><linearGradient id="linear-gradient-3" x1="148.97" y1="344.02" x2="1168.69" y2="344.02" xlink:href="#linear-gradient"/><linearGradient id="linear-gradient-4" x1="395" y1="335.43" x2="404.25" y2="335.43" gradientTransform="translate(-156.83 55.11) rotate(-1.37)" gradientUnits="userSpaceOnUse"><stop offset="0" stop-color="#016e94"/><stop offset="1" stop-color="#005c7e"/></linearGradient><linearGradient id="linear-gradient-5" x1="406.67" y1="339.26" x2="415.93" y2="339.26" xlink:href="#linear-gradient-4"/><linearGradient id="linear-gradient-6" x1="418.15" y1="338.74" x2="427.41" y2="338.74" xlink:href="#linear-gradient-4"/><linearGradient id="linear-gradient-7" x1="429.77" y1="341.16" x2="439.02" y2="341.16" xlink:href="#linear-gradient-4"/><linearGradient id="linear-gradient-8" x1="443.24" y1="342.5" x2="452.5" y2="342.5" xlink:href="#linear-gradient-4"/><linearGradient id="linear-gradient-9" x1="239.1" y1="318.96" x2="250.92" y2="318.96" gradientTransform="translate(-156.83 55.11) rotate(-1.37)" gradientUnits="userSpaceOnUse"><stop offset="0" stop-color="#000"/><stop offset="1" stop-color="#016c92"/></linearGradient><linearGradient id="linear-gradient-10" x1="1348.15" y1="120.15" x2="1372.11" y2="120.15" xlink:href="#linear-gradient"/><linearGradient id="linear-gradient-11" x1="1254.67" y1="94.02" x2="1255.37" y2="156.76" xlink:href="#linear-gradient-2"/><linearGradient id="linear-gradient-12" x1="1023.49" y1="89.28" x2="1527.96" y2="89.28" xlink:href="#linear-gradient"/><linearGradient id="linear-gradient-13" x1="1145.2" y1="85.02" x2="1149.78" y2="85.02" xlink:href="#linear-gradient-4"/><linearGradient id="linear-gradient-14" x1="1150.98" y1="86.92" x2="1155.56" y2="86.92" xlink:href="#linear-gradient-4"/><linearGradient id="linear-gradient-15" x1="1156.66" y1="86.66" x2="1161.23" y2="86.66" xlink:href="#linear-gradient-4"/><linearGradient id="linear-gradient-16" x1="1162.4" y1="87.86" x2="1166.98" y2="87.86" xlink:href="#linear-gradient-4"/><linearGradient id="linear-gradient-17" x1="1169.07" y1="88.52" x2="1173.65" y2="88.52" xlink:href="#linear-gradient-4"/><linearGradient id="linear-gradient-18" x1="1068.08" y1="76.87" x2="1073.92" y2="76.87" xlink:href="#linear-gradient-9"/><linearGradient id="linear-gradient-19" x1="1340.78" y1="745.98" x2="1376.53" y2="745.98" xlink:href="#linear-gradient"/><linearGradient id="linear-gradient-20" x1="1201.32" y1="707" x2="1202.37" y2="800.59" xlink:href="#linear-gradient-2"/><linearGradient id="linear-gradient-21" x1="856.44" y1="699.93" x2="1609.03" y2="699.93" xlink:href="#linear-gradient"/><linearGradient id="linear-gradient-22" x1="1038.01" y1="693.58" x2="1044.84" y2="693.58" xlink:href="#linear-gradient-4"/><linearGradient id="linear-gradient-23" x1="1046.63" y1="696.41" x2="1053.46" y2="696.41" xlink:href="#linear-gradient-4"/><linearGradient id="linear-gradient-24" x1="1055.1" y1="696.02" x2="1061.93" y2="696.02" xlink:href="#linear-gradient-4"/><linearGradient id="linear-gradient-25" x1="1063.68" y1="697.81" x2="1070.5" y2="697.81" xlink:href="#linear-gradient-4"/><linearGradient id="linear-gradient-26" x1="1073.62" y1="698.8" x2="1080.45" y2="698.8" xlink:href="#linear-gradient-4"/><linearGradient id="linear-gradient-27" x1="922.96" y1="681.42" x2="931.68" y2="681.42" xlink:href="#linear-gradient-9"/></defs><path class="cls-1" d="m696.24,412.03l-38.55,22.79c14.73,14.39,31.38,26.91,49.3,35.5-6.23-15.04-9.12-32.22-10.26-48.5-.23-3.31-.39-6.58-.49-9.79Z"/><path class="cls-21" d="m773.71,380.47c-126.15,8.8-261.3,65.21-261.34,65.21-20.91,1.46-43.14-13.54-65.51-11.98-45.15,6.02-90.22,13.12-134.78,16.23-123.17,8.59-185.99-39.68-233.8-36.34-12.44.87-24.68,4.52-36.94,7.81,8.77,5.42,17.89,10.07,27.02,13.96-9.86,5.33-19.98,10.52-27.98,18.34-.94.92-.67,2.59.53,3.07,106.43,42.97,276.17,46.36,383.86,38.84,66.56-4.64,152.13-17.4,153.08-17.66,83.87-22.81,202.44-59.4,320.04-79.31-.49-4.28-1.01-8.56-1.54-12.85-40.2-6.82-81.39-8.21-122.64-5.33Z"/><path class="cls-22" d="m1016.04,216.47c-42.07,49.4-90.43,91.86-134.8,139.21-32.97-2.88-63.54-7.63-92.61-13.48.49-9.49,1.56-18.89,4.12-27.92-12.95,4.79-25.45,11.61-36.08,20.96-81.36-18.99-153.05-44.71-237.25-58.19-6.59-15.87-10.61-32.79-11.81-50.05-2.49-35.69,8.93-65.85,8.93-65.85-.49-7.07-8.88-8.39-13.26-8.08-32.62,2.28-66.05,84.78-124.35,115.41-8.24.3-16.61.73-25.17,1.33-122.02,8.51-242.77,46.02-350.11,106.28-3.96,2.22-4.86,7.87-1.87,11.49,11.16,13.49,24.88,24.74,39.57,33.82,12.27-3.29,24.51-6.94,36.94-7.81,45.53-3.18,104.73,40.42,216.67,37.16,44.79,68.37,103.41,126.06,168.89,164.12-25.23-55.64-52.7-112.33-60.63-175.18,14.53-2,29.08-4.04,43.64-5.99,22.37-1.56,44.6,13.44,65.51,11.98.04,0,135.19-56.42,261.34-65.21,3.55-.25,7.09-.42,10.63-.6l3.18,1.86c.05-.68.08-1.37.12-2.05,26.89-1.24,53.7-.6,80.19,2.22l-1.07,3.55c28.17,85.33,86.08,129.42,109.64,142.41-8.65-30.1-16.13-61.1-18.3-92.09-7.05-101.09,52.04-140,57.93-219.29Z"/><path class="cls-20" d="m248.21,334.37c0,.06,0,.12.01.18,0,0,.05,22.47.82,33.5,1.33,19,4.06,41.32,7.38,59.33-5.25-16.74-9.07-34.88-10.32-52.85-.96-13.72-.42-27.34,2.12-40.17Z"/><path class="cls-26" d="m259.98,337.92c0,.06,0,.12.01.18,0,0,.05,22.47.82,33.5,1.33,19,4.06,41.32,7.38,59.33-5.25-16.74-9.07-34.88-10.32-52.85-.96-13.72-.42-27.34,2.12-40.17Z"/><path class="cls-27" d="m271.44,337.13c0,.06,0,.12.01.18,0,0,.05,22.47.82,33.5,1.33,19,4.06,41.32,7.38,59.33-5.25-16.74-9.07-34.88-10.32-52.85-.96-13.72-.42-27.34,2.12-40.17Z"/><path class="cls-25" d="m283.11,339.27c0,.06,0,.12.01.18,0,0,.05,22.47.82,33.5,1.33,19,4.06,41.32,7.38,59.33-5.25-16.74-9.07-34.88-10.32-52.85-.96-13.72-.42-27.34,2.12-40.17Z"/><path class="cls-23" d="m296.62,340.28c0,.06,0,.12.01.18,0,0,.05,22.47.82,33.5,1.33,19,4.06,41.32,7.38,59.33-5.25-16.74-9.07-34.88-10.32-52.85-.96-13.72-.42-27.34,2.12-40.17Z"/><path class="cls-24" d="m91.43,363.44c-.08.1-.17.21-.25.32-2.77,3.82-1.27,11.26,4.07,10.88,1.74-.12,6.68-1.93,6.37-6.39-.36-5.12-6.69-9.06-10.2-4.82Z"/><path class="cls-6" d="m1212.79,128.13l-19.07,11.27c7.29,7.12,15.52,13.31,24.39,17.56-3.08-7.44-4.51-15.94-5.07-23.99-.11-1.64-.19-3.26-.24-4.84Z"/><path class="cls-3" d="m1251.11,112.52c-62.41,4.35-129.27,32.26-129.29,32.26-10.34.72-21.34-6.7-32.41-5.93-22.34,2.98-44.63,6.49-66.68,8.03-60.93,4.25-92.01-19.63-115.67-17.98-6.15.43-12.21,2.24-18.28,3.86,4.34,2.68,8.85,4.98,13.37,6.91-4.88,2.64-9.88,5.21-13.84,9.07-.47.45-.33,1.28.26,1.52,52.65,21.26,136.62,22.93,189.9,19.22,32.93-2.3,75.26-8.61,75.73-8.74,41.49-11.29,100.15-29.39,158.33-39.24-.24-2.12-.5-4.24-.76-6.35-19.89-3.37-40.26-4.06-60.67-2.64Z"/><path class="cls-4" d="m1371,31.39c-20.81,24.44-44.74,45.44-66.69,68.87-16.31-1.43-31.44-3.78-45.82-6.67.24-4.69.77-9.35,2.04-13.81-6.41,2.37-12.59,5.75-17.85,10.37-40.25-9.4-75.72-22.12-117.37-28.79-3.26-7.85-5.25-16.22-5.84-24.76-1.23-17.66,4.42-32.58,4.42-32.58-.24-3.5-4.39-4.15-6.56-4-16.14,1.13-32.68,41.94-61.52,57.09-4.08.15-8.22.36-12.45.66-60.37,4.21-120.1,22.77-173.21,52.58-1.96,1.1-2.4,3.89-.92,5.68,5.52,6.68,12.31,12.24,19.57,16.73,6.07-1.63,12.12-3.43,18.28-3.86,22.53-1.57,51.81,20,107.19,18.38,22.16,33.82,51.16,62.37,83.55,81.19-12.48-27.53-26.07-55.57-29.99-86.66,7.19-.99,14.39-2,21.59-2.96,11.07-.77,22.07,6.65,32.41,5.93.02,0,66.88-27.91,129.29-32.26,1.75-.12,3.51-.21,5.26-.3l1.58.92c.02-.34.04-.68.06-1.01,13.3-.61,26.57-.3,39.67,1.1l-.53,1.75c13.93,42.21,42.59,64.03,54.24,70.45-4.28-14.89-7.98-30.23-9.05-45.56-3.49-50.01,25.74-69.26,28.66-108.49Z"/><path class="cls-5" d="m991.14,89.71s0,.06,0,.09c0,0,.02,11.12.4,16.57.66,9.4,2.01,20.44,3.65,29.35-2.6-8.28-4.49-17.25-5.11-26.14-.47-6.79-.21-13.52,1.05-19.87Z"/><path class="cls-14" d="m996.96,91.47s0,.06,0,.09c0,0,.02,11.12.4,16.57.66,9.4,2.01,20.44,3.65,29.35-2.6-8.28-4.49-17.25-5.11-26.14-.47-6.79-.21-13.52,1.05-19.87Z"/><path class="cls-10" d="m1002.63,91.08s0,.06,0,.09c0,0,.02,11.12.4,16.57.66,9.4,2.01,20.44,3.65,29.35-2.6-8.28-4.49-17.25-5.11-26.14-.47-6.79-.21-13.52,1.05-19.87Z"/><path class="cls-8" d="m1008.41,92.14s0,.06,0,.09c0,0,.02,11.12.4,16.57.66,9.4,2.01,20.44,3.65,29.35-2.6-8.28-4.49-17.25-5.11-26.14-.47-6.79-.21-13.52,1.05-19.87Z"/><path class="cls-7" d="m1015.09,92.64s0,.06,0,.09c0,0,.02,11.12.4,16.57.66,9.4,2.01,20.44,3.65,29.35-2.6-8.28-4.49-17.25-5.11-26.14-.47-6.79-.21-13.52,1.05-19.87Z"/><path class="cls-13" d="m913.58,104.1c-.04.05-.08.1-.12.16-1.37,1.89-.63,5.57,2.02,5.38.86-.06,3.3-.95,3.15-3.16-.18-2.53-3.31-4.48-5.04-2.38Z"/><path class="cls-9" d="m1229.69,746.62l-28.46,16.82c10.87,10.62,23.16,19.86,36.38,26.2-4.59-11.1-6.73-23.78-7.57-35.8-.17-2.44-.29-4.86-.36-7.23Z"/><path class="cls-16" d="m1286.87,723.33c-93.1,6.49-192.85,48.13-192.88,48.13-15.43,1.08-31.84-10-48.35-8.84-33.32,4.44-66.58,9.68-99.47,11.98-90.91,6.34-137.27-29.28-172.55-26.82-9.18.64-18.21,3.34-27.27,5.76,6.48,4,13.21,7.43,19.94,10.31-7.28,3.93-14.74,7.77-20.65,13.54-.69.68-.49,1.91.39,2.27,78.55,31.71,203.82,34.21,283.31,28.67,49.12-3.43,112.28-12.84,112.98-13.03,61.9-16.84,149.41-43.84,236.2-58.53-.36-3.16-.75-6.32-1.14-9.48-29.67-5.03-60.07-6.06-90.52-3.94Z"/><path class="cls-12" d="m1465.72,602.29c-31.05,36.46-66.74,67.79-99.49,102.75-24.33-2.13-46.9-5.63-68.35-9.95.36-7,1.15-13.94,3.04-20.61-9.56,3.54-18.78,8.57-26.63,15.47-60.05-14.02-112.96-33-175.1-42.95-4.86-11.72-7.83-24.2-8.72-36.94-1.84-26.34,6.59-48.6,6.59-48.6-.36-5.22-6.55-6.19-9.79-5.97-24.07,1.68-48.75,62.57-91.78,85.18-6.08.23-12.26.54-18.57.98-90.06,6.28-179.18,33.97-258.4,78.44-2.92,1.64-3.58,5.81-1.38,8.48,8.23,9.96,18.36,18.26,29.2,24.96,9.05-2.43,18.09-5.12,27.27-5.76,33.6-2.34,77.29,29.83,159.91,27.42,33.05,50.46,76.32,93.04,124.65,121.13-18.62-41.07-38.89-82.9-44.74-129.29,10.72-1.47,21.46-2.98,32.21-4.42,16.51-1.15,32.92,9.92,48.35,8.84.03,0,99.78-41.64,192.88-48.13,2.62-.18,5.23-.31,7.85-.44l2.35,1.38c.03-.5.06-1.01.09-1.51,19.85-.92,39.63-.44,59.18,1.64l-.79,2.62c20.79,62.98,63.53,95.52,80.92,105.1-6.38-22.22-11.91-45.09-13.5-67.97-5.2-74.61,38.41-103.33,42.75-161.85Z"/><path class="cls-15" d="m899.03,689.3s0,.09,0,.13c0,0,.03,16.59.6,24.73.98,14.02,3,30.5,5.44,43.79-3.87-12.35-6.69-25.74-7.62-39-.71-10.12-.31-20.17,1.56-29.64Z"/><path class="cls-11" d="m907.71,691.93s0,.09,0,.13c0,0,.03,16.59.6,24.73.98,14.02,3,30.5,5.44,43.79-3.87-12.35-6.69-25.74-7.62-39-.71-10.12-.31-20.17,1.56-29.64Z"/><path class="cls-18" d="m916.17,691.34s0,.09,0,.13c0,0,.03,16.59.6,24.73.98,14.02,3,30.5,5.44,43.79-3.87-12.35-6.69-25.74-7.62-39-.71-10.12-.31-20.17,1.56-29.64Z"/><path class="cls-2" d="m924.78,692.92s0,.09,0,.13c0,0,.03,16.59.6,24.73.98,14.02,3,30.5,5.44,43.79-3.87-12.35-6.69-25.74-7.62-39-.71-10.12-.31-20.17,1.56-29.64Z"/><path class="cls-19" d="m934.75,693.67s0,.09,0,.13c0,0,.03,16.59.6,24.73.98,14.02,3,30.5,5.44,43.79-3.87-12.35-6.69-25.74-7.62-39-.71-10.12-.31-20.17,1.56-29.64Z"/><path class="cls-17" d="m783.31,710.76c-.06.08-.12.15-.18.24-2.05,2.82-.94,8.31,3.01,8.03,1.28-.09,4.93-1.42,4.7-4.71-.26-3.78-4.94-6.69-7.53-3.56Z"/></svg>