<?xml version="1.0" encoding="UTF-8"?><svg xmlns="http://www.w3.org/2000/svg" xmlns:xlink="http://www.w3.org/1999/xlink" viewBox="0 0 1847.61 853.81"><defs><style>.cls-1{fill:url(#New_Gradient_Swatch-4);}.cls-1,.cls-2,.cls-3,.cls-4{stroke-width:0px;}.cls-2{fill:url(#New_Gradient_Swatch-2);}.cls-3{fill:url(#New_Gradient_Swatch-3);}.cls-5{mix-blend-mode:overlay;}.cls-4{fill:url(#New_Gradient_Swatch);}.cls-6{isolation:isolate;}</style><linearGradient id="New_Gradient_Swatch" x1="571" y1="418.9" x2="1460.93" y2="418.9" gradientUnits="userSpaceOnUse"><stop offset="0" stop-color="#004aff"/><stop offset="1" stop-color="#0f67fd"/></linearGradient><linearGradient id="New_Gradient_Swatch-2" x1="1421.96" y1="171.02" x2="1847.61" y2="171.02" xlink:href="#New_Gradient_Swatch"/><linearGradient id="New_Gradient_Swatch-3" x1="0" y1="129" x2="571" y2="129" xlink:href="#New_Gradient_Swatch"/><linearGradient id="New_Gradient_Swatch-4" x1="1264.41" y1="740.71" x2="1765.04" y2="740.71" xlink:href="#New_Gradient_Swatch"/></defs><g class="cls-6"><g id="Layer_1"><g class="cls-5"><path class="cls-4" d="m1460.93,283.86c-37.73,42.22-80.81,78.26-120.5,118.65-28.71-3.2-55.28-7.98-80.52-13.69.63-8.27,1.75-16.45,4.17-24.28-11.4,3.91-22.44,9.6-31.92,17.53-70.59-18.27-132.6-42.2-205.78-55.71-5.42-13.99-8.57-28.83-9.26-43.91-1.43-31.19,9.16-57.27,9.16-57.27-.28-6.18-7.57-7.5-11.4-7.33-28.51,1.31-59.39,72.59-110.9,98.1-7.19.09-14.51.29-21.98.64-106.64,4.89-212.77,35.1-307.68,85.44-3.5,1.86-4.4,6.77-1.87,9.98,9.45,12.01,21.19,22.1,33.82,30.33,4.04-.98,8.08-2,12.12-2.93-4.04.92-8.08,1.95-12.12,2.93,7.54,4.91,15.4,9.16,23.28,12.75-8.72,4.44-17.65,8.77-24.79,15.42-.84.78-.64,2.25.4,2.69,67.99,29.36,166.62,40.55,251.46,42.65,32.73,42.11,71.66,77.96,114.25,104.09-14.42-33.94-29.76-68.34-39.71-104.52,2.74-.1,5.45-.21,8.11-.34,58.17-2.66,133.09-12.01,133.93-12.22,25.44-6.27,54.53-13.89,85.96-21.8,8.43,6.93,17.42,13.02,26.86,17.82-2.81-7.28-4.71-15.1-5.98-23.02,47.75-11.76,99.95-23.63,152.44-32.2,24.46,65.03,68.58,100.05,87.41,111.03-6.92-26.44-12.81-53.64-14.05-80.73-4.05-88.35,48.32-121.06,55.1-190.12Z"/><path class="cls-2" d="m1847.61,106.43c-18.05,20.2-38.65,37.43-57.64,56.75-13.73-1.53-26.44-3.82-38.51-6.55.3-3.95.84-7.87,2-11.61-5.45,1.87-10.73,4.59-15.27,8.39-33.76-8.74-63.42-20.18-98.43-26.65-2.59-6.69-4.1-13.79-4.43-21-.68-14.92,4.38-27.39,4.38-27.39-.14-2.95-3.62-3.59-5.45-3.51-13.64.62-28.41,34.72-53.04,46.92-3.44.05-6.94.14-10.52.3-51.01,2.34-101.77,16.79-147.16,40.86-1.67.89-2.11,3.24-.89,4.78,4.52,5.74,10.13,10.57,16.17,14.51,1.93-.47,3.86-.96,5.8-1.4-1.93.44-3.86.93-5.8,1.4,3.61,2.35,7.37,4.38,11.14,6.1-4.17,2.13-8.44,4.19-11.86,7.38-.4.37-.31,1.07.19,1.29,32.52,14.04,79.69,19.39,120.27,20.4,15.66,20.14,34.27,37.29,54.64,49.79-6.9-16.23-14.23-32.69-18.99-49.99,1.31-.05,2.61-.1,3.88-.16,27.82-1.27,63.66-5.75,64.06-5.84,12.17-3,26.08-6.65,41.12-10.43,4.03,3.32,8.33,6.23,12.85,8.52-1.34-3.48-2.25-7.22-2.86-11.01,22.84-5.63,47.81-11.3,72.91-15.4,11.7,31.1,32.8,47.85,41.81,53.1-3.31-12.65-6.12-25.66-6.72-38.61-1.94-42.26,23.11-57.9,26.36-90.94Z"/><path class="cls-3" d="m571,42.35c-24.21,27.09-51.85,50.21-77.32,76.13-18.42-2.05-35.47-5.12-51.66-8.78.4-5.3,1.12-10.56,2.68-15.58-7.31,2.51-14.4,6.16-20.48,11.25-45.29-11.72-85.08-27.07-132.03-35.74-3.48-8.97-5.5-18.5-5.94-28.17-.92-20.01,5.88-36.75,5.88-36.75-.18-3.96-4.86-4.81-7.32-4.7-18.29.84-38.11,46.58-71.15,62.94-4.62.06-9.31.19-14.11.41-68.42,3.13-136.52,22.52-197.41,54.82-2.25,1.19-2.82,4.34-1.2,6.41,6.06,7.7,13.6,14.18,21.7,19.46,2.59-.63,5.18-1.29,7.77-1.88-2.59.59-5.18,1.25-7.77,1.88,4.84,3.15,9.88,5.88,14.94,8.18-5.59,2.85-11.32,5.62-15.91,9.89-.54.5-.41,1.44.26,1.73,43.63,18.84,106.91,26.01,161.34,27.36,21,27.02,45.98,50.02,73.3,66.79-9.25-21.78-19.09-43.85-25.48-67.06,1.76-.07,3.5-.14,5.2-.22,37.32-1.71,85.39-7.71,85.93-7.84,16.32-4.02,34.99-8.91,55.15-13.99,5.41,4.45,11.18,8.35,17.23,11.43-1.8-4.67-3.02-9.69-3.83-14.77,30.64-7.55,64.13-15.16,97.81-20.66,15.69,41.73,44,64.19,56.09,71.24-4.44-16.97-8.22-34.42-9.01-51.8-2.6-56.68,31-77.68,35.36-121.99Z"/><path class="cls-1" d="m1765.04,664.75c-21.23,23.75-45.46,44.02-67.79,66.75-16.15-1.8-31.1-4.49-45.3-7.7.35-4.65.98-9.25,2.35-13.66-6.41,2.2-12.62,5.4-17.96,9.86-39.71-10.28-74.59-23.74-115.76-31.34-3.05-7.87-4.82-16.22-5.21-24.7-.8-17.55,5.15-32.22,5.15-32.22-.16-3.47-4.26-4.22-6.41-4.12-16.04.73-33.41,40.84-62.38,55.19-4.05.05-8.16.17-12.37.36-59.99,2.75-119.69,19.75-173.08,48.06-1.97,1.04-2.48,3.81-1.05,5.62,5.32,6.75,11.92,12.43,19.02,17.06,2.27-.55,4.54-1.13,6.82-1.65-2.27.52-4.54,1.1-6.82,1.65,4.24,2.76,8.66,5.15,13.1,7.17-4.9,2.5-9.93,4.93-13.95,8.67-.47.44-.36,1.26.23,1.52,38.25,16.52,93.73,22.81,141.46,23.99,18.41,23.69,40.31,43.86,64.27,58.56-8.11-19.09-16.74-38.44-22.34-58.8,1.54-.06,3.07-.12,4.56-.19,32.72-1.5,74.87-6.76,75.34-6.87,14.31-3.53,30.68-7.82,48.36-12.26,4.74,3.9,9.8,7.32,15.11,10.03-1.58-4.09-2.65-8.49-3.36-12.95,26.86-6.62,56.23-13.29,85.75-18.11,13.76,36.58,38.58,56.28,49.17,62.46-3.89-14.88-7.2-30.17-7.9-45.41-2.28-49.7,27.18-68.1,31-106.95Z"/></g></g></g></svg>